SplineFontDB: 3.0
FontName: IranianSans-ExtraLight
FullName: Iranian Sans ExtraLight
FamilyName: Iranian Sans 
Weight: ExtraLight
Copyright: this is spcial version  for use in font-store.ir
Version: 5.0.0 build 1/7/1393
ItalicAngle: 0
UnderlinePosition: -100
UnderlineWidth: 100
Ascent: 1556
Descent: 492
InvalidEm: 0
sfntRevision: 0x00010000
LayerCount: 2
Layer: 0 0 "Back" 1
Layer: 1 0 "Fore" 0
XUID: [1021 107 -802105209 1359]
FSType: 0
OS2Version: 4
OS2_WeightWidthSlopeOnly: 0
OS2_UseTypoMetrics: 1
CreationTime: 1159092060
ModificationTime: 1415484569
PfmFamily: 81
TTFWeight: 200
TTFWidth: 5
LineGap: 0
VLineGap: 0
Panose: 2 0 5 3 0 0 0 0 0 0
OS2TypoAscent: 1556
OS2TypoAOffset: 0
OS2TypoDescent: -492
OS2TypoDOffset: 0
OS2TypoLinegap: 0
OS2WinAscent: 1901
OS2WinAOffset: 0
OS2WinDescent: 483
OS2WinDOffset: 0
HheadAscent: 1901
HheadAOffset: 0
HheadDescent: -483
HheadDOffset: 0
OS2SubXSize: 1331
OS2SubYSize: 1433
OS2SubXOff: -212
OS2SubYOff: 286
OS2SupXSize: 1331
OS2SupYSize: 1433
OS2SupXOff: 730
OS2SupYOff: 983
OS2StrikeYSize: 102
OS2StrikeYPos: 530
OS2CapHeight: 0
OS2XHeight: 0
OS2Vendor: 'RITA'
OS2CodePages: 00000040.20080000
OS2UnicodeRanges: 80002003.80002042.00000008.00000000
Lookup: 4 1 0 "'ccmp' Glyph Composition/Decomposition in Arabic lookup 0" { "'ccmp' Glyph Composition/Decomposition in Arabic lookup 0 subtable"  } ['ccmp' ('arab' <'ARA ' 'dflt' > ) ]
Lookup: 4 1 1 "'rlig' Required Ligatures in Arabic lookup 1" { "'rlig' Required Ligatures in Arabic lookup 1 subtable"  } ['rlig' ('arab' <'dflt' > ) ]
Lookup: 4 9 1 "'rlig' Required Ligatures in Arabic lookup 2" { "'rlig' Required Ligatures in Arabic lookup 2 subtable"  } ['rlig' ('arab' <'ARA ' 'dflt' > ) ]
Lookup: 1 9 0 "'init' Initial Forms in Arabic lookup 3" { "'init' Initial Forms in Arabic lookup 3 subtable"  } ['init' ('arab' <'ARA ' 'dflt' > ) ]
Lookup: 1 9 0 "'medi' Medial Forms in Arabic lookup 4" { "'medi' Medial Forms in Arabic lookup 4 subtable"  } ['medi' ('arab' <'ARA ' 'dflt' > ) ]

StartChar: .notdef
Encoding: 65536 -1 0
Width: 959
VWidth: 1524
GlyphClass: 2
Flags: MW
LayerCount: 2
Back
Fore
SplineSet
140 -309 m 1
 821 -309 l 1
 821 1003 l 1
 140 1003 l 1
 140 -309 l 1
850 1034 m 1
 850 -337 l 1
 110 -337 l 1
 110 1034 l 1
 850 1034 l 1
EndSplineSet
Validated: 1
EndChar

StartChar: exclam
Encoding: 33 33 4
Width: 640
VWidth: 1524
GlyphClass: 2
Flags: MW
LayerCount: 2
Back
Fore
SplineSet
371 1072 m 1
 371 591 l 1
 358 341 l 1
 286 341 l 1
 272 591 l 1
 272 1072 l 1
 371 1072 l 1
272 103 m 1
 371 103 l 1
 371 -35 l 1
 272 -35 l 1
 272 103 l 1
EndSplineSet
Validated: 1
Substitution2: "'calt' Contextual Alternates in Arabic lookup 9 subtable" exclam.fa
EndChar

StartChar: uni0022
Encoding: 34 34 5
Width: 734
VWidth: 1524
GlyphClass: 2
Flags: MW
LayerCount: 2
Back
Fore
SplineSet
479 1072 m 1
 553 1072 l 1
 553 699 l 1
 479 699 l 1
 479 1072 l 1
185 1072 m 1
 257 1072 l 1
 257 699 l 1
 185 699 l 1
 185 1072 l 1
EndSplineSet
Validated: 1
EndChar

StartChar: uni0023
Encoding: 35 35 6
Width: 1340
VWidth: 1524
GlyphClass: 2
Flags: MW
LayerCount: 2
Back
Fore
SplineSet
841 349 m 1
 1099 349 l 1
 1099 289 l 1
 826 289 l 1
 745 -55 l 1
 683 -55 l 1
 763 289 l 1
 470 289 l 1
 391 -55 l 1
 327 -55 l 1
 410 289 l 1
 153 289 l 1
 153 349 l 1
 422 349 l 1
 504 670 l 1
 242 670 l 1
 242 730 l 1
 518 730 l 1
 598 1054 l 1
 663 1054 l 1
 580 730 l 1
 873 730 l 1
 954 1054 l 1
 1016 1054 l 1
 936 730 l 1
 1189 730 l 1
 1189 670 l 1
 921 670 l 1
 841 349 l 1
567 670 m 1
 486 349 l 1
 779 349 l 1
 857 670 l 1
 567 670 l 1
EndSplineSet
Validated: 1
EndChar

StartChar: uni0024
Encoding: 36 36 7
Width: 1017
VWidth: 1524
GlyphClass: 2
Flags: MW
LayerCount: 2
Back
Fore
SplineSet
510 422 m 1
 510 15 l 1
 543 19 l 2
 691 37 771 104 771 218 c 0
 771 350 665 393 546 416 c 1
 510 422 l 1
493 501 m 1
 493 891 l 1
 460 888 l 1
 320 873 246 807 246 694 c 0
 246 566 343 527 458 507 c 2
 493 501 l 1
485 429 m 1
 297 462 163 502 163 687 c 0
 163 858 297 929 484 939 c 1
 493 940 l 1
 493 1121 l 1
 510 1121 l 1
 510 942 l 1
 520 942 l 1
 620 937 708 923 784 900 c 1
 784 832 l 1
 707 865 627 883 541 888 c 1
 510 889 l 1
 510 498 l 1
 518 496 l 1
 711 462 855 418 855 228 c 0
 855 36 713 -43 519 -55 c 1
 510 -56 l 1
 510 -290 l 1
 493 -290 l 1
 492 -55 l 1
 462 -55 l 1
 360 -51 259 -24 163 26 c 1
 163 95 l 1
 260 43 359 17 463 16 c 1
 493 16 l 1
 493 427 l 1
 485 429 l 1
EndSplineSet
Validated: 1
EndChar

StartChar: uni0025
Encoding: 37 37 8
Width: 1519
VWidth: 1524
GlyphClass: 2
Flags: MW
LayerCount: 2
Back
Fore
SplineSet
356 518 m 0
 198 518 118 637 118 806 c 0
 118 972 201 1094 356 1094 c 0
 513 1094 598 974 598 806 c 0
 598 637 515 518 356 518 c 0
1081 1094 m 1
 1135 1094 l 1
 442 -78 l 1
 387 -78 l 1
 1081 1094 l 1
532 805 m 0
 532 931 483 1054 357 1054 c 0
 230 1054 182 933 182 806 c 0
 182 679 228 557 356 557 c 0
 482 557 532 679 532 805 c 0
1161 -78 m 2
 1004 -78 924 51 924 231 c 0
 924 400 1006 518 1164 518 c 0
 1321 518 1402 398 1402 229 c 0
 1402 48 1320 -78 1162 -78 c 2
 1161 -78 l 2
1338 230 m 0
 1338 356 1290 479 1164 479 c 0
 1037 479 989 357 989 230 c 0
 989 105 1021 21 1089 -20 c 1
 1112 -32 1136 -38 1163 -38 c 0
 1288 -38 1338 94 1338 230 c 0
EndSplineSet
Validated: 1
EndChar

StartChar: uni0026
Encoding: 38 38 9
Width: 1247
VWidth: 1524
GlyphClass: 2
Flags: MW
LayerCount: 2
Back
Fore
SplineSet
370 585 m 1
 272 499 222 409 222 316 c 0
 222 115 364 -12 554 -12 c 0
 653 -12 744 31 824 117 c 1
 848 137 l 1
 391 605 l 1
 370 585 l 1
782 974 m 1
 703 1012 634 1031 572 1031 c 0
 461 1031 353 966 353 860 c 0
 353 818 362 782 379 751 c 0
 396 720 430 680 479 629 c 2
 902 195 l 1
 923 227 l 2
 984 321 1018 422 1026 531 c 1
 1111 531 l 1
 1092 406 1042 289 956 176 c 1
 941 155 l 1
 1127 -55 l 1
 1014 -55 l 1
 893 91 l 1
 885 85 l 1
 775 -22 658 -76 534 -77 c 0
 533 -77 532 -77 531 -77 c 0
 305 -75 131 64 131 293 c 0
 131 417 196 527 328 624 c 1
 352 642 l 1
 334 666 l 1
 286 728 263 790 263 857 c 0
 263 998 390 1094 540 1094 c 0
 620 1094 702 1078 782 1047 c 1
 782 974 l 1
EndSplineSet
Validated: 1
EndChar

StartChar: uni0027
Encoding: 39 39 10
Width: 437
VWidth: 1524
GlyphClass: 2
Flags: MW
LayerCount: 2
Back
Fore
SplineSet
257 1072 m 1
 257 700 l 1
 185 700 l 1
 185 1072 l 1
 257 1072 l 1
EndSplineSet
Validated: 1
EndChar

StartChar: parenleft
Encoding: 40 40 11
Width: 623
VWidth: 1524
GlyphClass: 2
Flags: MW
LayerCount: 2
Back
Fore
SplineSet
445 1140 m 1
 320 903 259 665 259 426 c 0
 259 187 321 -51 445 -286 c 1
 389 -286 l 1
 240 -37 167 199 167 430 c 0
 167 661 241 897 389 1140 c 1
 445 1140 l 1
EndSplineSet
Validated: 1
EndChar

StartChar: parenright
Encoding: 41 41 12
Width: 623
VWidth: 1524
GlyphClass: 2
Flags: MW
LayerCount: 2
Back
Fore
SplineSet
236 1140 m 1
 384 892 457 655 457 424 c 0
 457 193 383 -43 236 -286 c 1
 180 -286 l 1
 305 -47 366 190 366 427 c 0
 366 664 304 902 180 1140 c 1
 236 1140 l 1
EndSplineSet
Validated: 1
EndChar

StartChar: asterisk
Encoding: 42 42 13
Width: 798
VWidth: 1524
GlyphClass: 2
Flags: MW
LayerCount: 2
Back
Fore
SplineSet
697 552 m 1
 415 742 l 1
 415 404 l 1
 385 404 l 1
 385 742 l 1
 104 553 l 1
 88 592 l 1
 391 758 l 1
 88 921 l 1
 104 960 l 1
 385 773 l 1
 385 1114 l 1
 415 1114 l 1
 415 774 l 1
 696 961 l 1
 713 921 l 1
 409 758 l 1
 713 592 l 1
 697 552 l 1
EndSplineSet
Validated: 1
EndChar

StartChar: plus
Encoding: 43 43 14
Width: 1340
VWidth: 1524
GlyphClass: 2
Flags: MW
LayerCount: 2
Back
Fore
SplineSet
707 473 m 1
 1142 473 l 1
 1142 400 l 1
 707 400 l 1
 707 -55 l 1
 635 -55 l 1
 635 400 l 1
 200 400 l 1
 200 473 l 1
 635 473 l 1
 635 909 l 1
 707 909 l 1
 707 473 l 1
EndSplineSet
Validated: 1
EndChar

StartChar: uni002C
Encoding: 44 44 15
Width: 507
VWidth: 1524
GlyphClass: 2
Flags: MW
LayerCount: 2
Back
Fore
SplineSet
323 103 m 1
 323 -13 l 1
 207 -241 l 1
 162 -241 l 1
 218 -24 l 1
 218 103 l 1
 323 103 l 1
EndSplineSet
Validated: 1
EndChar

StartChar: hyphen_minus
Encoding: 45 45 16
Width: 576
VWidth: 1524
GlyphClass: 2
Flags: MW
LayerCount: 2
Back
Fore
SplineSet
109 408 m 1
 470 408 l 1
 470 340 l 1
 109 340 l 1
 109 408 l 1
EndSplineSet
Validated: 1
EndChar

StartChar: period
Encoding: 46 46 17
Width: 507
VWidth: 1524
GlyphClass: 2
Flags: MW
LayerCount: 2
Back
Fore
SplineSet
202 103 m 1
 307 103 l 1
 307 -35 l 1
 202 -35 l 1
 202 103 l 1
EndSplineSet
Validated: 1
Substitution2: "'calt' Contextual Alternates in Arabic lookup 9 subtable" period.fa
EndChar

StartChar: slash
Encoding: 47 47 18
Width: 537
VWidth: 1524
GlyphClass: 2
Flags: MW
LayerCount: 2
Back
Fore
SplineSet
111 -224 m 1
 40 -224 l 1
 429 1092 l 1
 500 1092 l 1
 111 -224 l 1
EndSplineSet
Validated: 1
EndChar

StartChar: colon
Encoding: 58 58 19
Width: 537
VWidth: 1524
GlyphClass: 2
Flags: MW
LayerCount: 2
Back
Fore
SplineSet
218 734 m 1
 323 734 l 1
 323 595 l 1
 218 595 l 1
 218 734 l 1
218 103 m 1
 323 103 l 1
 323 -35 l 1
 218 -35 l 1
 218 103 l 1
EndSplineSet
Validated: 1
Substitution2: "'calt' Contextual Alternates in Arabic lookup 9 subtable" colon.fa
EndChar

StartChar: uni003B
Encoding: 59 59 20
Width: 537
VWidth: 1524
GlyphClass: 2
Flags: MW
LayerCount: 2
Back
Fore
SplineSet
323 103 m 1
 323 -13 l 1
 207 -241 l 1
 162 -241 l 1
 218 -24 l 1
 218 103 l 1
 323 103 l 1
218 734 m 1
 323 734 l 1
 323 595 l 1
 218 595 l 1
 218 734 l 1
EndSplineSet
Validated: 1
EndChar

StartChar: uni003C
Encoding: 60 60 21
Width: 1340
VWidth: 1524
GlyphClass: 2
Flags: MW
LayerCount: 2
Back
Fore
SplineSet
1142 32 m 1
 200 392 l 1
 200 480 l 1
 1142 840 l 1
 1142 762 l 1
 278 435 l 1
 1142 109 l 1
 1142 32 l 1
EndSplineSet
Validated: 1
EndChar

StartChar: equal
Encoding: 61 61 22
Width: 1340
VWidth: 1524
GlyphClass: 2
Flags: MW
LayerCount: 2
Back
Fore
SplineSet
200 314 m 1
 1142 314 l 1
 1142 240 l 1
 200 240 l 1
 200 314 l 1
200 631 m 1
 1142 631 l 1
 1142 560 l 1
 200 560 l 1
 200 631 l 1
EndSplineSet
Validated: 1
EndChar

StartChar: uni003E
Encoding: 62 62 23
Width: 1340
VWidth: 1524
GlyphClass: 2
Flags: MW
LayerCount: 2
Back
Fore
SplineSet
1142 392 m 1
 200 32 l 1
 200 109 l 1
 1063 435 l 1
 200 762 l 1
 200 840 l 1
 1142 480 l 1
 1142 392 l 1
EndSplineSet
Validated: 1
EndChar

StartChar: uni003F
Encoding: 63 63 24
Width: 848
VWidth: 1524
GlyphClass: 2
Flags: MW
LayerCount: 2
Back
Fore
SplineSet
515 666 m 1
 577 726 610 784 610 840 c 0
 610 963 506 1024 380 1024 c 0
 312 1024 233 996 145 943 c 1
 145 1018 l 1
 236 1069 325 1094 415 1094 c 0
 583 1094 708 1003 708 847 c 0
 708 812 699 779 683 747 c 0
 667 716 636 678 591 635 c 2
 521 568 l 1
 483 530 459 499 447 472 c 0
 435 445 430 403 430 346 c 2
 430 279 l 1
 340 279 l 1
 340 368 l 2
 340 417 347 457 359 487 c 0
 371 517 400 553 446 596 c 1
 515 666 l 1
334 103 m 1
 435 103 l 1
 435 -35 l 1
 334 -35 l 1
 334 103 l 1
EndSplineSet
Validated: 1
EndChar

StartChar: uni0040
Encoding: 64 64 25
Width: 1599
VWidth: 1524
GlyphClass: 2
Flags: MW
LayerCount: 2
Back
Fore
SplineSet
786 32 m 0
 605 32 500 169 500 356 c 0
 500 541 605 677 784 677 c 0
 871 677 942 642 998 571 c 2
 1052 503 l 1
 1052 662 l 1
 1105 662 l 1
 1105 82 l 1
 1139 86 l 1
 1315 112 1407 257 1407 460 c 0
 1407 568 1374 663 1310 745 c 0
 1185 901 1023 980 825 980 c 0
 692 980 571 944 461 874 c 1
 315 778 186 598 186 374 c 0
 186 180 246 20 367 -104 c 0
 488 -223 637 -282 812 -282 c 0
 946 -282 1071 -241 1183 -161 c 1
 1217 -202 l 1
 1093 -290 960 -334 812 -334 c 0
 622 -334 462 -270 331 -143 c 1
 201 -11 136 155 136 355 c 0
 136 547 201 707 331 837 c 0
 462 967 626 1032 823 1032 c 0
 1044 1032 1222 944 1357 767 c 0
 1426 678 1460 570 1460 444 c 0
 1460 191 1295 47 1052 32 c 1
 1052 210 l 1
 998 139 l 2
 944 67 874 32 786 32 c 0
566 354 m 0
 566 200 651 86 804 86 c 0
 957 86 1041 200 1041 354 c 0
 1041 507 956 624 804 624 c 0
 652 624 566 507 566 354 c 0
EndSplineSet
Validated: 1
EndChar

StartChar: bracketleft
Encoding: 91 91 26
Width: 623
VWidth: 1524
GlyphClass: 2
Flags: MW
LayerCount: 2
Back
Fore
SplineSet
252 -214 m 1
 439 -214 l 1
 439 -266 l 1
 167 -266 l 1
 167 1121 l 1
 439 1121 l 1
 439 1070 l 1
 252 1070 l 1
 252 -214 l 1
EndSplineSet
Validated: 1
EndChar

StartChar: uni005C
Encoding: 92 92 27
Width: 537
VWidth: 1524
GlyphClass: 2
Flags: MW
LayerCount: 2
Back
Fore
SplineSet
500 -224 m 1
 429 -224 l 1
 40 1092 l 1
 111 1092 l 1
 500 -224 l 1
EndSplineSet
Validated: 1
EndChar

StartChar: bracketright
Encoding: 93 93 28
Width: 623
VWidth: 1524
GlyphClass: 2
Flags: MW
LayerCount: 2
Back
Fore
SplineSet
186 1121 m 1
 457 1121 l 1
 457 -266 l 1
 186 -266 l 1
 186 -214 l 1
 372 -214 l 1
 372 1070 l 1
 186 1070 l 1
 186 1121 l 1
EndSplineSet
Validated: 1
EndChar

StartChar: uni005E
Encoding: 94 94 29
Width: 1340
VWidth: 1524
GlyphClass: 2
Flags: MW
LayerCount: 2
Back
Fore
SplineSet
606 1072 m 1
 736 1072 l 1
 1101 697 l 1
 1026 697 l 1
 670 1015 l 1
 314 697 l 1
 241 697 l 1
 606 1072 l 1
EndSplineSet
Validated: 1
EndChar

StartChar: uni005F
Encoding: 95 95 30
Width: 798
VWidth: 1524
GlyphClass: 2
Flags: MW
LayerCount: 2
Back
Fore
SplineSet
15 -380 m 1
 786 -380 l 1
 786 -432 l 1
 15 -432 l 1
 15 -380 l 1
EndSplineSet
Validated: 1
EndChar

StartChar: uni0060
Encoding: 96 96 31
Width: 798
VWidth: 1524
GlyphClass: 2
Flags: MW
LayerCount: 2
Back
Fore
SplineSet
199 1186 m 1
 272 1186 l 1
 448 953 l 1
 402 953 l 1
 199 1186 l 1
EndSplineSet
Validated: 1
EndChar

StartChar: braceleft
Encoding: 123 123 32
Width: 1017
VWidth: 1524
GlyphClass: 2
Flags: MW
LayerCount: 2
Back
Fore
SplineSet
558 159 m 2
 558 -54 l 2
 558 -217 602 -264 766 -264 c 2
 789 -264 l 1
 789 -317 l 1
 771 -317 l 1
 646 -316 567 -298 531 -266 c 0
 495 -234 474 -166 474 -57 c 2
 474 149 l 2
 474 317 416 388 248 388 c 2
 230 388 l 1
 230 440 l 1
 248 440 l 2
 416 440 474 507 474 676 c 2
 474 863 l 2
 474 971 495 1039 531 1071 c 0
 567 1103 646 1121 771 1121 c 2
 789 1121 l 1
 789 1070 l 1
 766 1070 l 2
 603 1070 558 1024 558 861 c 2
 558 667 l 2
 558 523 532 467 424 444 c 2
 300 417 l 1
 423 385 l 1
 531 358 558 305 558 159 c 2
EndSplineSet
Validated: 1
EndChar

StartChar: uni007C
Encoding: 124 124 33
Width: 537
VWidth: 1524
GlyphClass: 2
Flags: MW
LayerCount: 2
Back
Fore
SplineSet
307 -452 m 1
 234 -452 l 1
 234 1149 l 1
 307 1149 l 1
 307 -452 l 1
EndSplineSet
Validated: 1
EndChar

StartChar: braceright
Encoding: 125 125 34
Width: 1017
VWidth: 1524
GlyphClass: 2
Flags: MW
LayerCount: 2
Back
Fore
SplineSet
789 388 m 1
 771 388 l 2
 602 388 544 317 544 149 c 2
 544 -57 l 2
 544 -165 524 -235 489 -267 c 0
 454 -299 374 -317 250 -317 c 2
 230 -317 l 1
 230 -264 l 1
 254 -264 l 2
 416 -264 460 -217 460 -54 c 2
 460 159 l 2
 460 304 487 359 595 385 c 2
 719 414 l 1
 595 443 l 1
 487 467 460 523 460 667 c 2
 460 861 l 2
 460 1023 416 1070 254 1070 c 2
 230 1070 l 1
 230 1121 l 1
 257 1121 l 2
 377 1121 455 1104 490 1073 c 0
 524 1042 544 972 544 863 c 2
 544 676 l 2
 544 507 604 440 771 440 c 2
 789 440 l 1
 789 388 l 1
EndSplineSet
Validated: 1
EndChar

StartChar: uni007E
Encoding: 126 126 35
Width: 1340
VWidth: 1524
GlyphClass: 2
Flags: MW
LayerCount: 2
Back
Fore
SplineSet
200 424 m 1
 297 493 385 525 468 525 c 0
 520 525 590 508 676 473 c 0
 764 438 835 419 892 419 c 0
 971 419 1055 451 1142 513 c 1
 1142 450 l 1
 1044 381 961 349 886 349 c 0
 809 349 733 368 659 405 c 1
 658 406 l 1
 656 406 l 1
 573 438 505 455 452 455 c 2
 449 455 l 2
 367 455 284 422 200 361 c 1
 200 424 l 1
EndSplineSet
Validated: 1
EndChar

StartChar: uni00A4
Encoding: 164 164 36
Width: 1017
VWidth: 1524
GlyphClass: 2
Flags: MW
LayerCount: 2
Back
Fore
SplineSet
510 197 m 0
 645 197 750 301 750 436 c 0
 750 569 645 675 512 675 c 0
 380 675 270 573 270 439 c 0
 270 305 376 197 510 197 c 0
814 434 m 0
 814 363 783 305 743 249 c 1
 904 91 l 1
 857 43 l 1
 700 204 l 1
 694 199 l 1
 634 161 573 133 510 133 c 0
 453 133 383 156 319 199 c 1
 162 42 l 1
 116 89 l 1
 273 245 l 1
 234 313 208 377 208 438 c 0
 208 497 233 563 276 624 c 1
 117 782 l 1
 164 830 l 1
 323 672 l 1
 379 712 436 738 504 738 c 0
 575 738 635 712 695 678 c 1
 702 675 l 1
 858 833 l 1
 905 785 l 1
 749 628 l 1
 791 565 814 494 814 434 c 0
EndSplineSet
Validated: 1
EndChar

StartChar: uni00A7
Encoding: 167 167 37
Width: 798
VWidth: 1524
GlyphClass: 2
Flags: MW
LayerCount: 2
Back
Fore
SplineSet
238 893 m 0
 238 831 311 755 446 687 c 1
 447 687 l 1
 553 627 622 578 652 543 c 0
 683 508 698 468 698 422 c 0
 698 342 656 278 568 227 c 1
 530 206 l 1
 564 178 l 1
 619 131 646 78 646 18 c 0
 646 -123 532 -208 394 -208 c 0
 320 -208 242 -196 164 -171 c 1
 164 -110 l 1
 241 -140 305 -155 363 -155 c 0
 464 -155 562 -102 562 11 c 0
 562 53 544 91 512 123 c 0
 480 155 434 189 373 223 c 1
 353 233 l 1
 244 294 175 343 146 378 c 0
 116 413 102 454 102 501 c 0
 102 584 143 648 230 694 c 1
 271 717 l 1
 234 745 l 2
 179 786 153 836 153 896 c 0
 153 1021 265 1094 400 1094 c 0
 472 1094 547 1082 619 1057 c 1
 619 996 l 1
 547 1026 488 1040 436 1040 c 0
 309 1040 238 991 238 893 c 0
299 700 m 1
 294 703 l 1
 279 691 l 1
 207 639 169 586 169 531 c 0
 169 478 189 433 229 395 c 0
 269 358 358 300 499 223 c 1
 505 220 l 1
 520 232 l 1
 591 285 631 338 631 392 c 0
 631 444 610 490 568 530 c 0
 529 568 427 636 299 700 c 1
EndSplineSet
Validated: 1
EndChar

StartChar: guillemotleft
Encoding: 171 171 38
Width: 978
VWidth: 1524
GlyphClass: 2
Flags: MW
LayerCount: 2
Back
Fore
SplineSet
209 404 m 1
 461 181 l 1
 461 112 l 1
 153 385 l 1
 153 423 l 1
 461 697 l 1
 461 627 l 1
 209 404 l 1
549 404 m 1
 799 181 l 1
 799 113 l 1
 493 385 l 1
 493 423 l 1
 799 697 l 1
 799 626 l 1
 549 404 l 1
EndSplineSet
Validated: 1
Substitution2: "'calt' Contextual Alternates in Arabic lookup 9 subtable" guillemotleft.fa
EndChar

StartChar: uni00AC
Encoding: 172 172 39
Width: 1340
VWidth: 1524
GlyphClass: 2
Flags: MW
LayerCount: 2
Back
Fore
SplineSet
200 579 m 1
 1142 579 l 1
 1142 189 l 1
 1071 189 l 1
 1071 506 l 1
 200 506 l 1
 200 579 l 1
EndSplineSet
Validated: 1
EndChar

StartChar: uni00B0
Encoding: 176 176 40
Width: 798
VWidth: 1524
GlyphClass: 2
Flags: MW
LayerCount: 2
Back
Fore
SplineSet
400 1094 m 0
 521 1094 617 992 619 872 c 0
 619 753 520 656 398 656 c 0
 272 656 183 748 183 874 c 0
 183 998 277 1094 400 1094 c 0
400 1052 m 0
 302 1052 222 972 222 874 c 0
 222 776 302 696 400 696 c 0
 498 696 579 773 579 872 c 0
 579 971 499 1052 400 1052 c 0
EndSplineSet
Validated: 1
EndChar

StartChar: uni00B6
Encoding: 182 182 41
Width: 1017
VWidth: 1524
GlyphClass: 2
Flags: MW
LayerCount: 2
Back
Fore
SplineSet
497 471 m 1
 290 482 152 576 152 774 c 0
 152 960 298 1072 494 1072 c 2
 816 1072 l 1
 816 -208 l 1
 765 -208 l 1
 765 1036 l 1
 556 1036 l 1
 556 -208 l 1
 506 -208 l 1
 506 471 l 1
 497 471 l 1
EndSplineSet
Validated: 1
EndChar

StartChar: periodcentered
Encoding: 183 183 42
Width: 507
VWidth: 1524
GlyphClass: 2
Flags: MW
LayerCount: 2
Back
Fore
SplineSet
307 560 m 1
 307 422 l 1
 202 422 l 1
 202 560 l 1
 307 560 l 1
EndSplineSet
Validated: 1
EndChar

StartChar: guillemotright
Encoding: 187 187 43
Width: 978
VWidth: 1524
GlyphClass: 2
Flags: MW
LayerCount: 2
Back
Fore
SplineSet
521 697 m 1
 827 423 l 1
 827 385 l 1
 521 113 l 1
 521 181 l 1
 771 404 l 1
 521 626 l 1
 521 697 l 1
181 697 m 1
 488 423 l 1
 488 385 l 1
 181 113 l 1
 181 181 l 1
 432 404 l 1
 181 626 l 1
 181 697 l 1
EndSplineSet
Validated: 1
Substitution2: "'calt' Contextual Alternates in Arabic lookup 9 subtable" guillemotright.fa
EndChar

StartChar: divide
Encoding: 247 247 44
Width: 1340
VWidth: 1524
GlyphClass: 2
Flags: MW
LayerCount: 2
Back
Fore
SplineSet
200 473 m 1
 1142 473 l 1
 1142 400 l 1
 200 400 l 1
 200 473 l 1
604 213 m 1
 737 213 l 1
 737 82 l 1
 604 82 l 1
 604 213 l 1
604 792 m 1
 737 792 l 1
 737 659 l 1
 604 659 l 1
 604 792 l 1
EndSplineSet
Validated: 1
EndChar

StartChar: uni2014
Encoding: 8212 8212 45
Width: 1599
VWidth: 1524
GlyphClass: 2
Flags: MW
LayerCount: 2
Back
Fore
SplineSet
30 400 m 1
 1572 400 l 1
 1572 346 l 1
 30 346 l 1
 30 400 l 1
EndSplineSet
Validated: 1
EndChar

StartChar: uni2022
Encoding: 8226 8226 46
Width: 942
VWidth: 1524
GlyphClass: 2
Flags: MW
LayerCount: 2
Back
Fore
SplineSet
472 328 m 0
 359 328 270 418 270 530 c 0
 270 642 360 732 472 732 c 0
 585 732 674 642 674 530 c 0
 674 418 584 328 472 328 c 0
EndSplineSet
Validated: 1
EndChar

StartChar: uni2026
Encoding: 8230 8230 47
Width: 1599
VWidth: 1524
GlyphClass: 2
Flags: MW
LayerCount: 2
Back
Fore
SplineSet
214 103 m 1
 322 103 l 1
 322 -35 l 1
 214 -35 l 1
 214 103 l 1
1280 103 m 1
 1386 103 l 1
 1386 -35 l 1
 1280 -35 l 1
 1280 103 l 1
748 103 m 1
 854 103 l 1
 854 -35 l 1
 748 -35 l 1
 748 103 l 1
EndSplineSet
Validated: 1
Substitution2: "'calt' Contextual Alternates in Arabic lookup 9 subtable" uni2026.fa
EndChar

StartChar: multiply
Encoding: 215 215 49
Width: 1340
VWidth: 1524
GlyphClass: 2
Flags: MW
LayerCount: 2
Back
Fore
SplineSet
1030 9 m 1
 670 383 l 1
 312 9 l 1
 262 62 l 1
 618 433 l 1
 262 806 l 1
 312 858 l 1
 670 484 l 1
 1030 858 l 1
 1080 806 l 1
 724 433 l 1
 1080 62 l 1
 1030 9 l 1
EndSplineSet
Validated: 1
EndChar

StartChar: uni2010
Encoding: 8208 8208 54
Width: 576
VWidth: 1524
GlyphClass: 2
Flags: MW
LayerCount: 2
Back
Fore
SplineSet
109 408 m 1
 470 408 l 1
 470 340 l 1
 109 340 l 1
 109 408 l 1
EndSplineSet
Validated: 1
EndChar

StartChar: uni20AC
Encoding: 8364 8364 55
Width: 1017
VWidth: 1524
GlyphClass: 2
Flags: MW
LayerCount: 2
Back
Fore
SplineSet
278 518 m 0
 278 477 280 441 284 408 c 1
 613 408 l 1
 597 372 l 1
 287 372 l 1
 293 337 l 1
 323 144 428 -13 630 -13 c 0
 688 -13 739 5 781 41 c 1
 816 60 850 85 883 115 c 1
 883 39 l 1
 798 -39 706 -78 604 -78 c 0
 368 -78 228 112 194 347 c 1
 189 372 l 1
 46 372 l 1
 62 408 l 1
 182 408 l 1
 181 518 l 1
 182 629 l 1
 47 629 l 1
 62 664 l 1
 189 664 l 1
 191 672 l 1
 215 809 255 910 337 987 c 0
 413 1058 502 1094 606 1094 c 0
 708 1094 801 1061 883 997 c 1
 883 922 l 1
 807 994 724 1029 636 1029 c 0
 427 1029 327 884 293 699 c 1
 287 664 l 1
 728 664 l 1
 713 629 l 1
 284 629 l 1
 280 596 278 559 278 518 c 0
EndSplineSet
Validated: 1
EndChar

StartChar: uni2212
Encoding: 8722 8722 56
Width: 1340
VWidth: 1524
GlyphClass: 2
Flags: MW
LayerCount: 2
Back
Fore
SplineSet
200 473 m 1
 1142 473 l 1
 1142 400 l 1
 200 400 l 1
 200 473 l 1
EndSplineSet
Validated: 1
EndChar

StartChar: uni2219
Encoding: 8729 8729 57
Width: 507
VWidth: 1524
GlyphClass: 2
Flags: MW
LayerCount: 2
Back
Fore
SplineSet
307 560 m 1
 307 422 l 1
 202 422 l 1
 202 560 l 1
 307 560 l 1
EndSplineSet
Validated: 1
EndChar

StartChar: uni25CC
Encoding: 9676 9676 58
Width: 1191
VWidth: 1524
GlyphClass: 2
Flags: MW
AnchorPoint: "Anchor-5" 598 -380 basechar 0
AnchorPoint: "Anchor-4" 574 1004 basechar 0
LayerCount: 2
Back
Fore
SplineSet
602 794 m 0
 589 794 570 793 550 791 c 1
 547 810 l 1
 562 811 576 811 594 811 c 0
 612 811 630 811 644 810 c 1
 642 792 l 1
 628 793 615 794 602 794 c 0
1000 602 m 1
 1019 576 1035 550 1048 521 c 1
 1031 514 l 1
 1018 542 1005 567 988 591 c 1
 1000 602 l 1
1093 320 m 0
 1093 303 1092 284 1090 268 c 1
 1073 271 l 1
 1074 282 1074 293 1074 306 c 0
 1074 321 1073 339 1072 360 c 1
 1091 363 l 1
 1092 350 1093 336 1093 320 c 0
986 40 m 1
 1004 66 1018 90 1030 117 c 1
 1048 110 l 1
 1034 80 1018 54 1000 28 c 1
 986 40 l 1
795 -138 m 1
 822 -126 848 -112 872 -94 c 1
 884 -108 l 1
 855 -129 828 -145 802 -157 c 1
 795 -138 l 1
549 -198 m 1
 551 -180 l 1
 565 -181 578 -181 592 -181 c 0
 607 -181 624 -180 641 -179 c 1
 644 -199 l 1
 630 -201 616 -201 601 -201 c 0
 585 -201 567 -200 549 -198 c 1
321 -93 m 1
 346 -110 371 -125 396 -137 c 1
 389 -156 l 1
 358 -143 332 -128 307 -109 c 1
 321 -93 l 1
164 116 m 1
 177 88 191 64 208 40 c 1
 192 27 l 1
 172 54 157 80 144 109 c 1
 164 116 l 1
103 363 m 1
 122 360 l 1
 120 343 119 332 119 322 c 0
 119 312 121 293 123 270 c 1
 103 267 l 1
 102 282 101 297 101 314 c 0
 101 331 102 348 103 363 c 1
145 521 m 1
 158 549 174 577 193 603 c 1
 208 591 l 1
 190 566 174 540 163 514 c 1
 145 521 l 1
307 720 m 1
 333 740 361 756 390 769 c 1
 397 751 l 1
 367 738 342 722 319 704 c 1
 307 720 l 1
802 766 m 1
 831 753 859 737 885 719 c 1
 873 705 l 1
 850 721 824 735 796 748 c 1
 802 766 l 1
EndSplineSet
Validated: 1
EndChar

StartChar: virgul
Encoding: 1548 1548 59
Width: 507
VWidth: 1524
GlyphClass: 2
Flags: MW
LayerCount: 2
Back
Fore
SplineSet
314 289 m 1
 258 74 l 1
 258 -35 l 1
 153 -35 l 1
 153 63 l 1
 270 289 l 1
 314 289 l 1
EndSplineSet
Validated: 1
Substitution2: "'calt' Contextual Alternates in Arabic lookup 9 subtable" virgul.fa
EndChar

StartChar: noqte_virgul
Encoding: 1563 1563 60
Width: 537
VWidth: 1524
GlyphClass: 2
Flags: MW
LayerCount: 2
Back
Fore
SplineSet
108 559 m 1
 212 762 l 1
 212 461 l 1
 108 461 l 1
 108 559 l 1
108 103 m 1
 212 103 l 1
 212 -35 l 1
 108 -35 l 1
 108 103 l 1
EndSplineSet
Validated: 1
Substitution2: "'calt' Contextual Alternates in Arabic lookup 9 subtable" noqte_virgul.fa
EndChar

StartChar: soal
Encoding: 1567 1567 61
Width: 848
VWidth: 1524
GlyphClass: 2
Flags: MW
LayerCount: 2
Back
Fore
SplineSet
170 749 m 0
 154 781 145 814 145 848 c 0
 145 1007 268 1094 438 1094 c 0
 527 1094 619 1068 708 1018 c 1
 708 943 l 1
 618 998 533 1025 448 1025 c 0
 358 1025 295 989 260 916 c 0
 248 893 243 866 243 837 c 0
 243 785 275 728 336 666 c 1
 407 596 l 2
 451 552 478 518 490 492 c 0
 502 466 509 424 512 367 c 2
 516 279 l 1
 423 279 l 1
 423 346 l 2
 423 402 418 442 408 468 c 0
 398 495 372 527 331 568 c 2
 263 634 l 2
 217 679 186 718 170 749 c 0
419 103 m 1
 517 103 l 1
 517 -35 l 1
 419 -35 l 1
 419 103 l 1
EndSplineSet
Validated: 1
EndChar

StartChar: hamze
Encoding: 1569 1569 62
Width: 600
VWidth: 1524
GlyphClass: 2
Flags: MW
AnchorPoint: "Anchor-1" 293 -27 basechar 0
AnchorPoint: "Anchor-0" 282 686 basechar 0
LayerCount: 2
Back
Fore
SplineSet
299 210 m 1
 368 227 431 245 485 255 c 1
 500 167 l 1
 340 132 211 85 112 26 c 1
 77 100 l 1
 100 114 127 129 158 147 c 2
 194 167 l 1
 163 195 l 2
 124 229 105 270 105 318 c 0
 105 366 126 414 170 461 c 0
 214 508 258 530 299 530 c 0
 354 530 392 511 425 483 c 1
 380 419 l 1
 355 432 328 438 297 438 c 0
 236 438 162 384 162 323 c 0
 162 298 172 276 192 263 c 0
 210 251 244 234 296 212 c 1
 299 210 l 1
EndSplineSet
Validated: 1
Substitution2: "'isol' Isolated Forms in Arabic lookup 6 subtable" uniFE80
EndChar

StartChar: kashidas
Encoding: 1600 1600 63
Width: 548
VWidth: 1524
GlyphClass: 2
Flags: MW
AnchorPoint: "Anchor-1" 234 -161 basechar 0
AnchorPoint: "Anchor-0" 246 707 basechar 0
LayerCount: 2
Back
Fore
SplineSet
-25 130 m 1
 521 130 l 1
 521 40 l 1
 -25 40 l 1
 -25 130 l 1
EndSplineSet
Validated: 1
EndChar

StartChar: uni0660
Encoding: 1632 1632 64
Width: 1017
VWidth: 1584
GlyphClass: 2
Flags: MW
LayerCount: 2
Back
Fore
SplineSet
490 714 m 1
 652 592 l 1
 523 433 l 1
 365 560 l 1
 490 714 l 1
EndSplineSet
Validated: 1
EndChar

StartChar: uni0661
Encoding: 1633 1633 65
Width: 1017
VWidth: 1584
GlyphClass: 2
Flags: MW
LayerCount: 2
Back
Fore
SplineSet
661 25 m 1
 644 381 549 705 379 999 c 0
 359 1035 339 1069 320 1101 c 1
 375 1147 l 1
 590 793 705 419 721 25 c 1
 661 25 l 1
EndSplineSet
Validated: 1
EndChar

StartChar: uni0662
Encoding: 1634 1634 66
Width: 1017
VWidth: 1584
GlyphClass: 2
Flags: MW
LayerCount: 2
Back
Fore
SplineSet
551 45 m 1
 491 45 l 1
 485 405 373 748 158 1079 c 1
 215 1128 l 1
 315 1024 412 966 507 955 c 0
 537 952 569 950 602 950 c 0
 702 950 775 1029 825 1175 c 1
 885 1152 l 1
 818 953 723 859 602 859 c 0
 519 859 453 869 406 887 c 2
 335 914 l 1
 368 846 l 1
 486 599 547 330 551 45 c 1
EndSplineSet
Validated: 1
EndChar

StartChar: uni0663
Encoding: 1635 1635 67
Width: 1017
VWidth: 1584
GlyphClass: 2
Flags: MW
LayerCount: 2
Back
Fore
SplineSet
776 970 m 0
 863 970 880 1091 890 1187 c 1
 946 1183 l 1
 933 1068 913 989 887 946 c 0
 861 902 822 880 768 880 c 0
 715 880 671 906 636 963 c 2
 609 1006 l 1
 585 962 l 2
 547 894 499 862 438 862 c 0
 406 862 371 868 334 882 c 2
 270 906 l 1
 297 842 l 2
 387 627 452 360 491 45 c 1
 433 45 l 1
 378 469 267 814 99 1082 c 1
 151 1127 l 1
 237 1012 333 953 438 953 c 0
 541 953 578 1086 583 1189 c 1
 639 1189 l 1
 644 1082 671 1013 723 984 c 0
 739 974 757 970 776 970 c 0
EndSplineSet
Validated: 1
EndChar

StartChar: uni0664
Encoding: 1636 1636 68
Width: 1017
VWidth: 1584
GlyphClass: 2
Flags: MW
LayerCount: 2
Back
Fore
SplineSet
699 67 m 1
 688 -41 l 1
 413 22 286 121 286 248 c 0
 286 322 321 404 392 496 c 0
 418 529 448 564 483 604 c 2
 508 632 l 1
 476 650 l 1
 344 728 282 805 282 881 c 0
 282 957 351 1039 497 1127 c 1
 534 1148 577 1169 620 1188 c 1
 647 1108 l 1
 510 1050 419 999 370 950 c 0
 350 926 339 901 339 874 c 0
 339 844 365 814 410 782 c 0
 454 751 523 709 615 658 c 1
 435 463 343 330 343 248 c 0
 343 209 364 176 403 150 c 1
 404 149 l 1
 470 114 569 87 699 67 c 1
EndSplineSet
Validated: 1
EndChar

StartChar: uni0665
Encoding: 1637 1637 69
Width: 1017
VWidth: 1584
GlyphClass: 2
Flags: MW
LayerCount: 2
Back
Fore
SplineSet
483 768 m 1
 332 707 253 612 253 483 c 0
 254 359 352 291 492 291 c 0
 669 291 767 342 767 452 c 1
 765 618 639 743 489 769 c 1
 486 769 l 1
 483 768 l 1
822 468 m 0
 822 263 709 200 491 200 c 0
 306 200 195 293 195 481 c 0
 195 528 203 575 220 622 c 0
 262 739 351 818 487 862 c 1
 675 827 822 678 822 468 c 0
EndSplineSet
Validated: 1
EndChar

StartChar: uni0666
Encoding: 1638 1638 70
Width: 1017
VWidth: 1584
GlyphClass: 2
Flags: MW
LayerCount: 2
Back
Fore
SplineSet
349 984 m 0
 457 984 581 1004 718 1042 c 1
 690 838 676 782 676 557 c 0
 676 458 680 388 689 346 c 0
 715 232 762 149 830 99 c 1
 797 24 l 1
 752 59 712 113 676 188 c 0
 638 268 618 379 618 521 c 0
 618 664 625 786 638 890 c 1
 642 931 l 1
 602 924 l 1
 496 902 421 891 376 891 c 0
 330 891 300 895 285 899 c 0
 237 913 186 942 131 989 c 1
 177 1050 l 1
 231 1006 288 984 349 984 c 0
EndSplineSet
Validated: 1
EndChar

StartChar: uni0667
Encoding: 1639 1639 71
Width: 1017
VWidth: 1584
GlyphClass: 2
Flags: MW
LayerCount: 2
Back
Fore
SplineSet
940 1140 m 1
 701 794 636 510 554 25 c 1
 477 25 l 1
 439 241 409 398 383 503 c 0
 331 715 233 927 89 1140 c 1
 142 1187 l 1
 271 1000 358 828 406 668 c 0
 423 614 450 500 486 330 c 2
 516 187 l 1
 546 330 l 1
 634 734 695 892 889 1186 c 1
 940 1140 l 1
EndSplineSet
Validated: 1
EndChar

StartChar: uni0668
Encoding: 1640 1640 72
Width: 1017
VWidth: 1584
GlyphClass: 2
Flags: MW
LayerCount: 2
Back
Fore
SplineSet
533 1179 m 1
 629 621 691 389 921 62 c 1
 870 14 l 1
 774 153 704 275 659 389 c 0
 613 506 568 662 524 858 c 1
 493 1000 l 1
 464 858 l 2
 429 691 401 570 378 497 c 0
 335 359 249 196 121 13 c 1
 68 62 l 1
 316 425 374 685 456 1179 c 1
 533 1179 l 1
EndSplineSet
Validated: 1
EndChar

StartChar: uni0669
Encoding: 1641 1641 73
Width: 1017
VWidth: 1584
GlyphClass: 2
Flags: MW
LayerCount: 2
Back
Fore
SplineSet
390 650 m 0
 204 650 138 703 138 874 c 0
 138 1017 234 1190 367 1190 c 0
 430 1190 492 1153 556 1076 c 0
 619 1000 652 897 652 767 c 0
 652 482 701 277 801 152 c 0
 821 128 843 109 866 93 c 1
 836 17 l 1
 697 110 616 324 596 664 c 1
 593 710 l 1
 552 689 l 2
 501 663 448 650 390 650 c 0
360 1099 m 1
 356 1099 l 2
 260 1099 196 976 196 886 c 0
 196 791 249 741 347 741 c 0
 486 741 493 749 588 801 c 1
 594 805 l 1
 578 899 554 972 507 1023 c 0
 463 1071 415 1098 360 1099 c 1
EndSplineSet
Validated: 1
EndChar

StartChar: uni066A
Encoding: 1642 1642 74
Width: 996
VWidth: 1524
GlyphClass: 2
Flags: MW
LayerCount: 2
Back
Fore
SplineSet
144 1145 m 1
 341 1145 l 1
 341 950 l 1
 144 950 l 1
 144 1145 l 1
661 75 m 1
 855 75 l 1
 855 -121 l 1
 661 -121 l 1
 661 75 l 1
860 1227 m 1
 890 1227 l 1
 144 -215 l 1
 113 -215 l 1
 860 1227 l 1
EndSplineSet
Validated: 1
EndChar

StartChar: uni066B
Encoding: 1643 1643 75
Width: 507
VWidth: 1524
GlyphClass: 2
Flags: MW
LayerCount: 2
Back
Fore
SplineSet
-11 -398 m 1
 -42 -398 l 1
 401 828 l 1
 439 828 l 1
 -11 -398 l 1
EndSplineSet
Validated: 1
Substitution2: "'calt' Contextual Alternates in Arabic lookup 10 subtable" uni066B.ar
EndChar

StartChar: uni066C
Encoding: 1644 1644 76
Width: 507
VWidth: 1524
GlyphClass: 2
Flags: MW
LayerCount: 2
Back
Fore
SplineSet
124 -204 m 1
 211 -153 347 -37 347 83 c 1
 338 154 l 1
 295 110 l 2
 290 105 282 102 269 102 c 0
 243 102 211 136 213 166 c 1
 211 202 246 226 290 226 c 0
 344 226 370 197 370 132 c 0
 370 -34 250 -142 134 -211 c 1
 124 -204 l 1
EndSplineSet
Validated: 33
Substitution2: "'calt' Contextual Alternates in Arabic lookup 10 subtable" uni066C.ar
EndChar

StartChar: uni066B.ar
Encoding: 65537 -1 77
Width: 507
VWidth: 1524
GlyphClass: 2
Flags: MW
LayerCount: 2
Back
Fore
SplineSet
178 60 m 0
 178 105 223 157 262 157 c 0
 353 157 411 81 411 -33 c 0
 411 -92 394 -145 360 -192 c 0
 327 -239 274 -288 204 -338 c 1
 190 -330 l 1
 311 -256 374 -177 374 -90 c 0
 374 -72 372 -58 367 -47 c 1
 351 12 l 1
 319 -37 l 1
 267 -37 l 2
 222 -37 178 11 178 60 c 0
EndSplineSet
Validated: 1
EndChar

StartChar: uni066C.ar
Encoding: 65538 -1 78
Width: 507
VWidth: 1524
GlyphClass: 2
Flags: MW
LayerCount: 2
Back
Fore
SplineSet
356 432 m 0
 328 432 305 457 305 490 c 0
 305 518 326 541 369 541 c 0
 380 541 395 534 413 517 c 0
 429 502 438 477 439 439 c 0
 439 428 438 416 436 405 c 1
 436 412 435 417 434 424 c 1
 434 425 l 1
 423 476 l 1
 384 441 l 2
 377 435 369 432 356 432 c 0
EndSplineSet
Validated: 1
EndChar

StartChar: num.zero
Encoding: 1776 1776 79
Width: 1017
VWidth: 1584
GlyphClass: 2
Flags: MW
LayerCount: 2
Back
Fore
SplineSet
436 413 m 0
 458 403 483 398 508 398 c 0
 604 398 693 475 693 572 c 1
 691 666 606 747 511 747 c 2
 505 747 l 2
 409 747 324 670 324 572 c 0
 324 498 362 444 436 413 c 0
507 788 m 0
 620 788 712 688 712 572 c 0
 712 458 621 357 511 357 c 2
 508 357 l 2
 391 357 309 457 303 572 c 1
 305 689 393 788 507 788 c 0
EndSplineSet
Validated: 1
EndChar

StartChar: num.four
Encoding: 1780 1780 83
Width: 1017
VWidth: 1584
GlyphClass: 2
Flags: MW
LayerCount: 2
Back
Fore
SplineSet
808 1150 m 1
 760 1161 722 1166 688 1166 c 0
 618 1166 534 1115 534 1040 c 0
 534 988 575 932 611 903 c 0
 625 892 631 885 639 877 c 1
 644 878 l 1
 745 889 827 901 893 929 c 1
 911 864 l 1
 816 812 725 786 633 786 c 0
 539 786 456 808 387 850 c 2
 304 901 l 1
 345 812 l 1
 452 571 508 314 512 45 c 1
 455 45 l 1
 450 340 379 617 243 878 c 0
 205 948 165 1017 125 1081 c 1
 181 1127 l 1
 291 1011 380 939 456 908 c 1
 524 878 l 1
 495 947 l 2
 482 979 476 1010 476 1040 c 0
 476 1103 497 1154 539 1194 c 0
 581 1235 628 1254 678 1254 c 0
 760 1254 771 1245 811 1228 c 1
 808 1150 l 1
EndSplineSet
Validated: 1
EndChar

StartChar: num.five
Encoding: 1781 1781 84
Width: 1017
VWidth: 1584
GlyphClass: 2
Flags: MW
LayerCount: 2
Back
Fore
SplineSet
294 605 m 0
 231 461 198 350 198 268 c 0
 198 183 239 117 320 117 c 0
 375 117 417 141 443 187 c 0
 466 228 480 270 486 311 c 1
 546 311 l 1
 557 186 600 117 683 117 c 0
 777 117 822 192 822 324 c 0
 822 539 724 753 532 965 c 2
 504 996 l 1
 484 960 l 1
 391 799 327 681 294 605 c 0
482 121 m 2
 445 57 392 26 322 26 c 0
 201 26 140 104 140 273 c 0
 140 365 163 466 211 576 c 0
 259 686 345 847 457 1043 c 1
 389 1105 l 1
 433 1167 l 1
 622 991 746 826 809 673 c 0
 857 559 880 444 880 328 c 0
 880 170 836 76 753 39 c 0
 733 31 709 26 683 26 c 0
 615 26 567 57 535 120 c 1
 509 169 l 1
 482 121 l 2
EndSplineSet
Validated: 1
EndChar

StartChar: num.six
Encoding: 1782 1782 85
Width: 1017
VWidth: 1584
GlyphClass: 2
Flags: MW
LayerCount: 2
Back
Fore
SplineSet
603 715 m 0
 731 715 781 750 875 793 c 1
 903 713 l 1
 714 630 579 555 499 485 c 0
 418 414 329 309 228 170 c 0
 199 130 166 83 131 34 c 1
 82 83 l 1
 224 283 330 419 404 498 c 0
 434 529 464 557 494 583 c 2
 543 625 l 1
 479 636 l 1
 320 661 200 757 200 922 c 0
 200 990 237 1053 314 1112 c 0
 391 1171 462 1200 528 1200 c 0
 593 1200 665 1185 741 1156 c 1
 715 1075 l 1
 646 1100 587 1112 532 1112 c 0
 432 1112 257 1033 257 926 c 2
 257 924 l 2
 257 825 325 761 451 730 c 0
 494 720 544 715 603 715 c 0
EndSplineSet
Validated: 1
EndChar

StartChar: As
Encoding: 65539 -1 89
Width: 207
VWidth: 1524
GlyphClass: 2
Flags: MW
LayerCount: 2
Back
Fore
SplineSet
133 843 m 1
 133 40 l 1
 78 40 l 1
 78 843 l 1
 133 843 l 1
EndSplineSet
Validated: 1
EndChar

StartChar: uniFE8D
Encoding: 65165 65165 90
Width: 474
VWidth: 1524
GlyphClass: 2
Flags: MW
AnchorPoint: "Anchor-1" 234 -161 basechar 0
AnchorPoint: "Anchor-0" 188 1332 basechar 0
LayerCount: 2
Back
Fore
SplineSet
262 1121 m 1
 262 40 l 1
 183 40 l 1
 183 1121 l 1
 262 1121 l 1
EndSplineSet
Validated: 513
PairPos2: "'kern' Horizontal Kerning in Arabic lookup 0 subtable" gaf_ye.farsi.isol dx=50 dy=0 dh=50 dv=0 dx=0 dy=0 dh=0 dv=0
PairPos2: "'kern' Horizontal Kerning in Arabic lookup 0 subtable" kaf.farsi_ye.farsi.isol dx=50 dy=0 dh=50 dv=0 dx=0 dy=0 dh=0 dv=0
PairPos2: "'kern' Horizontal Kerning in Arabic lookup 0 subtable" uniFEDB dx=50 dy=0 dh=50 dv=0 dx=0 dy=0 dh=0 dv=0
PairPos2: "'kern' Horizontal Kerning in Arabic lookup 0 subtable" uniFE83 dx=62 dy=0 dh=62 dv=0 dx=0 dy=0 dh=0 dv=0
PairPos2: "'kern' Horizontal Kerning in Arabic lookup 0 subtable" uniFE81 dx=62 dy=0 dh=62 dv=0 dx=0 dy=0 dh=0 dv=0
PairPos2: "'kern' Horizontal Kerning in Arabic lookup 0 subtable" kaf.init dx=50 dy=0 dh=50 dv=0 dx=0 dy=0 dh=0 dv=0
PairPos2: "'kern' Horizontal Kerning in Arabic lookup 0 subtable" uniFB8E dx=50 dy=0 dh=50 dv=0 dx=0 dy=0 dh=0 dv=0
PairPos2: "'kern' Horizontal Kerning in Arabic lookup 0 subtable" uniFB50 dx=62 dy=0 dh=62 dv=0 dx=0 dy=0 dh=0 dv=0
PairPos2: "'kern' Horizontal Kerning in Arabic lookup 0 subtable" gaf.init dx=50 dy=0 dh=50 dv=0 dx=0 dy=0 dh=0 dv=0
PairPos2: "'kern' Horizontal Kerning in Arabic lookup 0 subtable" uniFB92 dx=50 dy=0 dh=50 dv=0 dx=0 dy=0 dh=0 dv=0
EndChar

StartChar: Af
Encoding: 65540 -1 91
Width: 415
VWidth: 1524
GlyphClass: 2
Flags: MW
LayerCount: 2
Back
Fore
SplineSet
331 124 m 2
 406 124 l 1
 406 40 l 1
 342 40 l 2
 139 40 79 109 79 288 c 2
 79 843 l 1
 133 843 l 1
 133 263 l 1
 134 143 212 124 331 124 c 2
EndSplineSet
Validated: 1
EndChar

StartChar: alef.fina
Encoding: 65166 65166 92
Width: 514
VWidth: 1524
GlyphClass: 2
Flags: MW
AnchorPoint: "Anchor-1" 234 -161 basechar 0
AnchorPoint: "Anchor-0" 176 1332 basechar 0
LayerCount: 2
Back
Fore
SplineSet
470 130 m 2
 486 130 l 1
 486 40 l 1
 470 40 l 2
 274 40 183 106 183 238 c 2
 183 1121 l 1
 262 1121 l 1
 262 288 l 2
 262 182 336 130 470 130 c 2
EndSplineSet
Validated: 513
PairPos2: "'kern' Horizontal Kerning in Arabic lookup 0 subtable" gaf_ye.farsi.isol dx=50 dy=0 dh=50 dv=0 dx=0 dy=0 dh=0 dv=0
PairPos2: "'kern' Horizontal Kerning in Arabic lookup 0 subtable" kaf.farsi_ye.farsi.isol dx=50 dy=0 dh=50 dv=0 dx=0 dy=0 dh=0 dv=0
PairPos2: "'kern' Horizontal Kerning in Arabic lookup 0 subtable" uniFEDB dx=50 dy=0 dh=50 dv=0 dx=0 dy=0 dh=0 dv=0
PairPos2: "'kern' Horizontal Kerning in Arabic lookup 0 subtable" uniFE83 dx=62 dy=0 dh=62 dv=0 dx=0 dy=0 dh=0 dv=0
PairPos2: "'kern' Horizontal Kerning in Arabic lookup 0 subtable" uniFE81 dx=62 dy=0 dh=62 dv=0 dx=0 dy=0 dh=0 dv=0
PairPos2: "'kern' Horizontal Kerning in Arabic lookup 0 subtable" kaf.init dx=50 dy=0 dh=50 dv=0 dx=0 dy=0 dh=0 dv=0
PairPos2: "'kern' Horizontal Kerning in Arabic lookup 0 subtable" uniFB8E dx=50 dy=0 dh=50 dv=0 dx=0 dy=0 dh=0 dv=0
PairPos2: "'kern' Horizontal Kerning in Arabic lookup 0 subtable" uniFB50 dx=62 dy=0 dh=62 dv=0 dx=0 dy=0 dh=0 dv=0
PairPos2: "'kern' Horizontal Kerning in Arabic lookup 0 subtable" gaf.init dx=50 dy=0 dh=50 dv=0 dx=0 dy=0 dh=0 dv=0
PairPos2: "'kern' Horizontal Kerning in Arabic lookup 0 subtable" uniFB92 dx=50 dy=0 dh=50 dv=0 dx=0 dy=0 dh=0 dv=0
EndChar

StartChar: Bs
Encoding: 65541 -1 93
Width: 1609
VWidth: 1524
GlyphClass: 2
Flags: MW
LayerCount: 2
Back
Fore
SplineSet
1472 283 m 0
 1472 345 1450 444 1409 574 c 1
 1473 580 l 1
 1514 450 1535 357 1535 300 c 0
 1535 241 1522 202 1502 184 c 0
 1462 147 1339 108 1132 69 c 0
 925 30 764 11 649 11 c 0
 259 11 74 109 74 294 c 0
 74 372 94 468 134 580 c 1
 198 567 l 1
 190 541 179 506 163 459 c 0
 145 404 135 348 135 288 c 0
 135 223 181 177 266 146 c 0
 351 115 456 100 586 100 c 0
 801 100 1029 129 1273 186 c 0
 1362 207 1413 222 1431 233 c 0
 1450 245 1472 253 1472 283 c 0
EndSplineSet
Validated: 1
EndChar

StartChar: Bf
Encoding: 65542 -1 94
Width: 1744
VWidth: 1524
GlyphClass: 2
Flags: MW
LayerCount: 2
Back
Fore
SplineSet
197 567 m 1
 175 498 135 384 135 288 c 0
 135 223 181 177 266 146 c 0
 351 115 460 100 596 100 c 0
 732 100 890 114 1068 144 c 0
 1357 193 1440 239 1491 453 c 1
 1495 465 l 1
 1548 444 l 1
 1520 348 1507 294 1507 271 c 0
 1507 155 1617 133 1735 130 c 1
 1735 40 l 1
 1587 45 1501 85 1467 157 c 1
 1451 193 l 1
 1421 168 l 2
 1360 117 1200 71 941 35 c 0
 828 19 746 11 696 11 c 2
 616 11 l 2
 440 11 305 35 212 83 c 0
 119 131 74 196 74 282 c 0
 74 368 94 468 134 580 c 1
 197 567 l 1
EndSplineSet
Validated: 1
EndChar

StartChar: Bi
Encoding: 65543 -1 95
Width: 456
VWidth: 1524
GlyphClass: 2
Flags: MW
LayerCount: 2
Back
Fore
SplineSet
318 268 m 0
 318 327 296 424 256 558 c 1
 329 564 l 1
 370 435 391 339 391 274 c 0
 391 116 228 40 63 40 c 2
 0 40 l 2
 -7 40 -18 41 -25 43 c 1
 -25 130 l 1
 63 130 l 2
 175 130 318 160 318 268 c 0
EndSplineSet
Validated: 1
EndChar

StartChar: Bm
Encoding: 65544 -1 96
Width: 530
VWidth: 1524
GlyphClass: 2
Flags: MW
LayerCount: 2
Back
Fore
SplineSet
308 432 m 1
 308 288 l 2
 308 163 397 136 521 130 c 1
 521 40 l 1
 400 44 326 70 295 113 c 2
 274 143 l 1
 249 115 l 2
 205 66 131 40 27 40 c 2
 0 40 l 2
 -7 40 -18 41 -25 43 c 1
 -25 130 l 1
 27 130 l 2
 145 130 249 173 249 286 c 2
 249 432 l 1
 308 432 l 1
EndSplineSet
Validated: 1
EndChar

StartChar: Js
Encoding: 65545 -1 97
Width: 1031
VWidth: 1524
GlyphClass: 2
Flags: MW
LayerCount: 2
Back
Fore
SplineSet
517 -377 m 2
 228 -377 74 -242 74 40 c 0
 74 238 222 394 530 505 c 1
 593 527 l 1
 332 670 l 1
 331 670 l 1
 295 687 269 696 250 696 c 0
 230 696 213 685 199 667 c 1
 115 576 l 1
 82 608 l 1
 159 732 l 1
 177 754 l 2
 192 772 216 786 255 786 c 0
 276 786 312 774 360 749 c 2
 618 610 l 1
 619 610 l 1
 672 585 738 573 818 573 c 0
 839 573 857 573 874 572 c 1
 957 572 l 1
 957 482 l 1
 886 482 l 2
 749 482 606 452 460 395 c 0
 249 311 139 197 139 48 c 0
 139 -176 291 -287 520 -287 c 0
 668 -287 797 -272 904 -245 c 1
 920 -313 l 1
 786 -356 655 -377 520 -377 c 2
 517 -377 l 2
EndSplineSet
Validated: 1
EndChar

StartChar: Jf
Encoding: 65546 -1 98
Width: 1094
VWidth: 1524
GlyphClass: 2
Flags: MW
LayerCount: 2
Back
Fore
SplineSet
517 -377 m 2
 228 -377 74 -242 74 40 c 0
 74 238 222 394 530 505 c 1
 593 527 l 1
 332 670 l 1
 331 670 l 1
 295 687 269 696 250 696 c 0
 230 696 213 685 199 667 c 1
 115 576 l 1
 82 608 l 1
 159 732 l 1
 177 754 l 2
 192 772 216 786 255 786 c 0
 276 786 312 774 360 749 c 2
 618 610 l 1
 619 610 l 1
 672 585 738 573 818 573 c 0
 839 573 857 573 874 572 c 1
 957 572 l 1
 957 482 l 1
 824 482 l 1
 893 289 l 2
 925 201 977 141 1085 132 c 1
 1085 41 l 1
 942 52 872 138 839 270 c 1
 783 475 l 1
 774 474 l 1
 452 421 250 325 170 181 c 0
 148 143 138 101 138 56 c 0
 139 -173 279 -287 547 -287 c 0
 679 -287 798 -272 904 -245 c 1
 920 -313 l 1
 786 -356 655 -377 520 -377 c 2
 517 -377 l 2
EndSplineSet
Validated: 1
EndChar

StartChar: Ji
Encoding: 65547 -1 99
Width: 1112
VWidth: 1524
GlyphClass: 2
Flags: MW
LayerCount: 2
Back
Fore
SplineSet
1012 406 m 2
 1038 406 l 1
 1038 316 l 1
 970 316 l 2
 914 316 861 299 813 266 c 1
 812 266 l 1
 809 264 l 1
 693 174 595 114 518 85 c 0
 439 55 379 40 337 40 c 2
 0 40 l 2
 -7 40 -18 41 -25 43 c 1
 -25 130 l 1
 337 130 l 2
 427 130 533 171 656 250 c 0
 686 269 711 286 728 301 c 2
 762 331 l 1
 722 351 l 2
 705 360 687 363 684 370 c 1
 409 530 l 1
 407 530 l 1
 374 547 348 556 326 556 c 0
 304 556 282 545 264 525 c 2
 183 437 l 1
 148 470 l 1
 230 593 l 1
 256 628 294 646 344 646 c 0
 366 646 398 634 439 608 c 1
 710 448 l 1
 712 448 l 1
 765 423 817 409 871 408 c 0
 924 407 971 406 1012 406 c 2
EndSplineSet
Validated: 1
EndChar

StartChar: Jm
Encoding: 65548 -1 100
Width: 1183
VWidth: 1524
GlyphClass: 2
Flags: MW
LayerCount: 2
Back
Fore
SplineSet
904 248 m 1
 949 150 1036 132 1174 130 c 1
 1174 40 l 1
 1068 42 997 54 958 75 c 0
 918 96 885 142 860 216 c 2
 836 286 l 1
 803 262 l 2
 678 170 589 113 538 93 c 0
 449 57 380 40 331 40 c 2
 0 40 l 2
 -7 40 -18 41 -25 43 c 1
 -25 130 l 1
 331 130 l 2
 421 130 527 171 650 250 c 0
 680 269 705 286 722 301 c 2
 757 330 l 1
 716 351 l 1
 693.48201897 360.650563299 682.634995382 367.296213008 678 370 c 2
 404 530 l 1
 402 530 l 1
 369 547 342 556 320 556 c 0
 296 556 275 544 259 524 c 1
 179 437 l 1
 144 470 l 1
 225 593 l 1
 250 628 288 646 338 646 c 0
 360 646 392 634 434 608 c 1
 705 449 l 1
 706 449 l 1
 759 423 813 409 868 408 c 0
 921 407 967 406 1008 406 c 2
 1033 406 l 1
 1033 316 l 1
 964 316 l 2
 949 316 931 314 918 312 c 2
 876 307 l 1
 904 248 l 1
EndSplineSet
Validated: 1
EndChar

StartChar: Ds
Encoding: 65549 -1 101
Width: 746
VWidth: 1524
GlyphClass: 2
Flags: MW
LayerCount: 2
Back
Fore
SplineSet
245 99 m 0
 356 99 477 128 533 151 c 0
 581 170 611 193 611 225 c 0
 611 386 534 544 383 697 c 1
 427 762 l 1
 553 640 680 483 680 249 c 0
 680 168 660 110 563 65 c 0
 465 19 339 12 257 12 c 0
 180 12 119 23 77 42 c 1
 112 120 l 1
 150 105 196 99 245 99 c 0
EndSplineSet
Validated: 1
EndChar

StartChar: Df
Encoding: 65550 -1 102
Width: 925
VWidth: 1524
GlyphClass: 2
Flags: MW
LayerCount: 2
Back
Fore
SplineSet
648 223 m 1
 640 239 567 387 406 719 c 1
 463 755 l 1
 679 308 l 1
 715 236 751 189 787 166 c 0
 820 145 864 133 916 130 c 1
 916 40 l 1
 789 44 756 73 686 155 c 1
 664 142 l 1
 529 56 378 12 209 12 c 0
 162 12 117 22 77 41 c 1
 112 120 l 1
 145 108 187 103 240 103 c 0
 368 103 517 141 648 223 c 1
EndSplineSet
Validated: 1
EndChar

StartChar: Rs
Encoding: 65551 -1 103
Width: 757
VWidth: 1524
GlyphClass: 2
Flags: MW
LayerCount: 2
Back
Fore
SplineSet
76 -336 m 1
 370 -218 617 -100 617 136 c 0
 617 221 569 374 537 434 c 1
 601 488 l 1
 645 413 695 258 695 119 c 0
 695 -152 369 -317 101 -423 c 1
 76 -336 l 1
EndSplineSet
Validated: 1
EndChar

StartChar: Rf
Encoding: 65552 -1 104
Width: 932
VWidth: 1524
GlyphClass: 2
Flags: MW
LayerCount: 2
Back
Fore
SplineSet
645 444 m 1
 692 295 733 144 923 131 c 1
 923 40 l 1
 834 44 770 62 727 94 c 2
 688 122 l 1
 649 -75 532 -199 209 -351 c 1
 174 -366 139 -381 107 -396 c 1
 77 -318 l 1
 111 -302 143 -286 178 -270 c 0
 347 -195 463 -125 529 -61 c 0
 599 13 625 97 625 184 c 0
 625 256 603 332 575 406 c 1
 645 444 l 1
EndSplineSet
Validated: 1
EndChar

StartChar: Ss
Encoding: 65553 -1 105
Width: 1906
VWidth: 1524
GlyphClass: 2
Flags: MW
LayerCount: 2
Back
Fore
SplineSet
1405 282 m 1
 1407 185 1471 130 1576 130 c 0
 1668 130 1759 179 1770 265 c 1
 1770 268 l 2
 1770 324 1748 420 1706 558 c 1
 1770 564 l 1
 1821 405 1832 363 1832 259 c 0
 1832 138 1728 40 1576 40 c 0
 1497 40 1429 69 1389 126 c 1
 1367 159 l 1
 1341 126 l 1
 1298 68 1242 40 1174 40 c 0
 1125 40 1087 46 1062 57 c 2
 1020 77 l 1
 1020 20 l 2
 1020 -253 710 -352 400 -352 c 0
 200 -352 74 -263 74 -73 c 0
 74 21 112 138 187 279 c 1
 232 259 l 1
 170 128 140 27 140 -52 c 0
 140 -157 161 -183 227 -228 c 0
 263 -253 314 -264 376 -264 c 0
 668 -263 855 -209 932 -95 c 1
 950 -61 959 -23 959 18 c 0
 959 94 925 187 859 293 c 1
 915 334 l 1
 949 282 l 2
 980 233 1012 196 1044 170 c 0
 1077 143 1118 130 1169 130 c 0
 1221 130 1262 149 1295 185 c 0
 1327 220 1344 255 1344 288 c 2
 1344 372 l 1
 1405 372 l 1
 1405 282 l 1
EndSplineSet
Validated: 1
EndChar

StartChar: Sf
Encoding: 65554 -1 106
Width: 2025
VWidth: 1524
GlyphClass: 2
Flags: MW
LayerCount: 2
Back
Fore
SplineSet
1588 130 m 0
 1658 130 1741 224 1741 292 c 2
 1741 372 l 1
 1801 372 l 1
 1801 285 l 2
 1801 212 1838 162 1906 138 c 0
 1926 131 1947 128 1966 130 c 1
 2016 130 l 1
 2016 40 l 1
 1964 40 l 2
 1887 40 1818 75 1786 128 c 1
 1785 128 l 1
 1761 164 l 1
 1736 130 l 2
 1692 69 1634 40 1560 40 c 0
 1486 40 1429 68 1389 126 c 1
 1365 159 l 1
 1341 126 l 2
 1298 68 1243 40 1174 40 c 0
 1125 40 1087 46 1062 57 c 2
 1020 77 l 1
 1020 20 l 2
 1020 -253 710 -352 400 -352 c 0
 200 -352 74 -263 74 -73 c 0
 74 21 112 138 187 279 c 1
 232 259 l 1
 170 128 140 27 140 -52 c 0
 140 -156 161 -183 227 -228 c 0
 263 -253 314 -264 376 -264 c 0
 668 -263 855 -209 932 -95 c 1
 950 -61 959 -23 959 18 c 0
 959 94 925 187 859 293 c 1
 915 334 l 1
 949 282 l 2
 980 233 1012 196 1044 170 c 0
 1077 143 1118 130 1169 130 c 0
 1221 130 1262 149 1295 185 c 0
 1327 220 1344 255 1344 288 c 2
 1344 372 l 1
 1405 372 l 1
 1405 282 l 1
 1406 181 1471 130 1588 130 c 0
EndSplineSet
Validated: 1
EndChar

StartChar: Si
Encoding: 65555 -1 107
Width: 1486
VWidth: 1524
GlyphClass: 2
Flags: MW
LayerCount: 2
Back
Fore
SplineSet
934 282 m 2
 934 183 1011 130 1106 130 c 0
 1190 130 1295 182 1297 268 c 1
 1297 329 1275 426 1235 558 c 1
 1301 564 l 1
 1342 437 1362 343 1362 280 c 0
 1362 144 1276 40 1113 40 c 2
 1111 40 l 2
 1037 40 956 70 918 125 c 1
 896 159 l 1
 870 126 l 1
 827 68 768 40 692 40 c 0
 615 40 560 67 523 121 c 2
 499 157 l 1
 475 121 l 1
 445 78 368 40 289 40 c 2
 0 40 l 2
 -7 40 -18 41 -25 43 c 1
 -25 130 l 1
 289 130 l 2
 340 130 385 148 422 184 c 0
 458 219 478 252 479 284 c 1
 479 372 l 1
 540 372 l 1
 540 278 l 2
 540 183 609 130 703 130 c 0
 752 130 792 148 825 185 c 0
 857 221 874 255 875 288 c 1
 875 372 l 1
 934 372 l 1
 934 282 l 2
EndSplineSet
Validated: 1
EndChar

StartChar: Sm
Encoding: 65556 -1 108
Width: 1574
VWidth: 1524
GlyphClass: 2
Flags: MW
LayerCount: 2
Back
Fore
SplineSet
1329 372 m 1
 1329 285 l 1
 1331 190 1403 130 1493 130 c 2
 1545 130 l 1
 1545 40 l 1
 1493 40 l 2
 1422 40 1346 76 1315 128 c 1
 1314 128 l 1
 1290 164 l 1
 1265 130 l 2
 1221 69 1162 40 1088 40 c 0
 1014 40 958 69 918 126 c 1
 896 159 l 1
 870 126 l 1
 827 68 767 40 692 40 c 0
 617 40 561 67 523 121 c 1
 499 157 l 1
 475 121 l 2
 445 77 369 40 289 40 c 2
 0 40 l 2
 -7 40 -18 41 -25 43 c 1
 -25 130 l 1
 289 130 l 2
 340 130 385 148 422 184 c 0
 458 219 478 252 479 284 c 1
 479 372 l 1
 540 372 l 1
 540 278 l 2
 540 182 609 130 703 130 c 0
 752 130 792 149 825 185 c 0
 857 220 875 254 875 288 c 2
 875 372 l 1
 934 372 l 1
 934 282 l 2
 934 184 1011 130 1103 130 c 0
 1149 130 1190 148 1222 185 c 0
 1253 221 1269 258 1269 292 c 2
 1269 372 l 1
 1329 372 l 1
EndSplineSet
Validated: 1
EndChar

StartChar: Zs
Encoding: 65557 -1 109
Width: 2039
VWidth: 1524
GlyphClass: 2
Flags: MW
LayerCount: 2
Back
Fore
SplineSet
1777 195 m 0
 1859 239 1902 294 1902 362 c 0
 1902 452 1809 522 1741 522 c 0
 1639 522 1524 447 1392 300 c 0
 1357 260 1323 219 1290 178 c 2
 1251 130 l 1
 1438 130 l 2
 1582 130 1695 151 1777 195 c 0
1020 20 m 2
 1020 -253 710 -352 400 -352 c 0
 200 -352 74 -263 74 -73 c 0
 74 21 112 138 187 279 c 1
 232 259 l 1
 170 128 140 27 140 -52 c 0
 140 -156 161 -183 227 -228 c 0
 263 -253 314 -264 376 -264 c 0
 668 -263 855 -209 932 -95 c 1
 950 -61 959 -23 959 18 c 0
 959 94 925 187 859 293 c 1
 915 334 l 1
 948 282 l 1
 1005 187 1072 135 1150 133 c 1
 1166 133 l 1
 1315 332 1444 470 1543 540 c 0
 1604 582 1674 603 1739 603 c 0
 1864 603 1969 528 1969 377 c 0
 1969 137 1703 40 1438 40 c 2
 1184 40 l 2
 1128 40 1087 46 1062 57 c 2
 1020 77 l 1
 1020 20 l 2
EndSplineSet
Validated: 1
EndChar

StartChar: Zf
Encoding: 65558 -1 110
Width: 2122
VWidth: 1524
GlyphClass: 2
Flags: MW
LayerCount: 2
Back
Fore
SplineSet
1766 102 m 1
 1676 57 1561 40 1440 40 c 2
 1185 40 l 2
 1129 40 1087 46 1062 57 c 2
 1020 77 l 1
 1020 20 l 2
 1020 -253 710 -352 400 -352 c 0
 200 -352 74 -263 74 -73 c 0
 74 21 112 138 187 279 c 1
 232 259 l 1
 170 128 140 27 140 -52 c 0
 140 -201 227 -264 376 -264 c 0
 668 -263 855 -209 932 -95 c 1
 950 -61 959 -23 959 18 c 0
 959 94 925 187 859 293 c 1
 915 334 l 1
 948 282 l 1
 1005 187 1073 135 1152 133 c 1
 1168 133 l 1
 1316 330 1446 467 1549 537 c 0
 1624 587 1681 605 1740 605 c 0
 1878 605 1966 491 1966 382 c 0
 1966 327 1942 247 1897 193 c 2
 1867 157 l 1
 1911 145 l 2
 1944 136 2013 131 2113 130 c 1
 2113 40 l 1
 2057 40 2022 41 2001 44 c 2
 1934 52 l 2
 1886 58 1825 73 1766 102 c 1
1778 195 m 0
 1860 239 1903 296 1903 365 c 0
 1903 454 1810 522 1743 522 c 0
 1670 522 1595 489 1521 425 c 0
 1447 361 1371 278 1291 178 c 2
 1252 130 l 1
 1440 130 l 2
 1583 130 1696 151 1778 195 c 0
EndSplineSet
Validated: 1
EndChar

StartChar: Zi
Encoding: 65559 -1 111
Width: 1434
VWidth: 1524
GlyphClass: 2
Flags: MW
LayerCount: 2
Back
Fore
SplineSet
636 174 m 1
 598 126 l 1
 783 126 l 2
 1001 126 1146 171 1215 266 c 0
 1236 294 1247 325 1247 358 c 0
 1247 435 1168 516 1086 516 c 2
 1084 516 l 2
 1011 516 936 483 861 418 c 0
 786 354 711 272 636 174 c 1
361 372 m 1
 361 284 l 1
 362 204 407 128 497 128 c 2
 512 128 l 1
 630 285 738 406 836 488 c 0
 933 569 1013 601 1075 601 c 0
 1232 601 1310 493 1310 353 c 0
 1310 123 1031 34 783 34 c 2
 523 34 l 2
 450 34 377 73 345 121 c 2
 320 158 l 1
 295 121 l 2
 268 80 185 40 110 40 c 2
 0 40 l 2
 -7 40 -18 41 -25 43 c 1
 -25 130 l 1
 110 130 l 2
 192 130 300 199 300 280 c 2
 300 372 l 1
 361 372 l 1
EndSplineSet
Validated: 1
EndChar

StartChar: Zm
Encoding: 65560 -1 112
Width: 1486
VWidth: 1524
GlyphClass: 2
Flags: MW
LayerCount: 2
Back
Fore
SplineSet
107 130 m 2
 189 130 296 208 296 284 c 2
 296 372 l 1
 357 372 l 1
 357 278 l 1
 358 208 389 160 448 137 c 0
 463 132 478 128 493 128 c 2
 508 128 l 1
 653 322 782 460 889 534 c 0
 962 584 1027 601 1087 601 c 0
 1177 601 1307 527 1307 367 c 0
 1307 313 1282 243 1237 189 c 2
 1206 152 l 1
 1253 141 l 2
 1281 134 1349 131 1458 130 c 1
 1458 40 l 1
 1264 42 1207 47 1105 98 c 1
 1101 96 l 1
 1004 55 898 34 780 34 c 2
 519 34 l 2
 446 34 374 73 340 122 c 2
 316 156 l 1
 291 121 l 1
 264 79 181 40 107 40 c 2
 0 40 l 2
 -7 40 -18 41 -25 43 c 1
 -25 130 l 1
 107 130 l 2
1120 191 m 0
 1200 235 1243 288 1243 350 c 0
 1243 430 1180 517 1072 517 c 0
 953 517 807 400 632 174 c 1
 594 126 l 1
 780 126 l 2
 926 126 1039 147 1120 191 c 0
EndSplineSet
Validated: 1
EndChar

StartChar: Ts
Encoding: 65561 -1 113
Width: 1116
VWidth: 1524
GlyphClass: 2
Flags: MW
LayerCount: 2
Back
Fore
SplineSet
853 191 m 0
 934 235 978 288 978 350 c 0
 978 431 909 518 802 518 c 0
 768 518 728 507 680 487 c 0
 632 466 580 433 523 390 c 0
 465 346 394 275 309 178 c 1
 266 131 l 1
 288 130 l 2
 359 127 434 126 509 126 c 0
 655 126 771 147 853 191 c 0
76 73 m 1
 100 156 l 1
 123 149 148 144 175 141 c 1
 180 141 l 1
 222 190 l 1
 222 1121 l 1
 283 1121 l 1
 283 259 l 1
 335 314 l 1
 516 511 677 608 810 608 c 0
 943 608 1043 514 1043 372 c 0
 1043 118 760 34 480 34 c 0
 299 34 163 48 76 73 c 1
EndSplineSet
Validated: 1
EndChar

StartChar: Tf
Encoding: 65562 -1 114
Width: 1205
VWidth: 1524
GlyphClass: 2
Flags: MW
LayerCount: 2
Back
Fore
SplineSet
853 191 m 0
 935 235 980 290 981 357 c 0
 979 448 886 517 814 517 c 0
 730 517 647 485 564 420 c 0
 481 356 396 275 311 178 c 1
 268 131 l 1
 332 128 l 2
 362 127 393 126 424 126 c 2
 510 126 l 2
 656 126 770 147 853 191 c 0
100 158 m 1
 133 149 157 143 183 139 c 1
 224 189 l 1
 224 1121 l 1
 285 1121 l 1
 285 259 l 1
 337 314 l 1
 517 511 680 608 820 608 c 0
 933 608 1047 499 1047 373 c 0
 1047 315 1019 242 970 188 c 2
 935 150 l 1
 986 138 l 1
 1012 133 1045 130 1085 130 c 2
 1196 130 l 1
 1196 40 l 1
 1007 40 932 51 837 98 c 1
 833 96 l 1
 736 55 625 34 497 34 c 0
 306 34 164 48 76 73 c 1
 100 158 l 1
EndSplineSet
Validated: 1
EndChar

StartChar: Ti
Encoding: 65563 -1 115
Width: 1145
VWidth: 1524
GlyphClass: 2
Flags: MW
LayerCount: 2
Back
Fore
SplineSet
489 130 m 2
 686 130 959 178 959 350 c 0
 959 430 893 519 786 519 c 0
 753 519 711 507 660 485 c 0
 550 436 427 335 289 180 c 1
 246 130 l 1
 489 130 l 2
-25 43 m 1
 -25 130 l 1
 153 130 l 1
 203 189 l 1
 203 1121 l 1
 263 1121 l 1
 263 259 l 1
 315 314 l 1
 499 511 652 601 790 601 c 0
 913 601 1020 497 1020 360 c 0
 1020 146 756 40 489 40 c 2
 0 40 l 2
 -7 40 -18 41 -25 43 c 1
EndSplineSet
Validated: 1
EndChar

StartChar: Tm
Encoding: 65564 -1 116
Width: 1201
VWidth: 1524
GlyphClass: 2
Flags: MW
LayerCount: 2
Back
Fore
SplineSet
812 98 m 1
 728 56 614 40 491 40 c 2
 0 40 l 2
 -7 40 -18 41 -25 43 c 1
 -25 130 l 1
 154 130 l 1
 204 189 l 1
 204 1121 l 1
 265 1121 l 1
 265 259 l 1
 317 314 l 1
 404 408 475 473 529 507 c 0
 635 575 722 602 790 602 c 0
 915 602 1028 502 1028 360 c 0
 1028 307 992 234 950 188 c 2
 915 150 l 1
 966 138 l 1
 992 133 1024 130 1064 130 c 2
 1174 130 l 1
 1174 40 l 1
 977 40 925 49 816 96 c 1
 812 98 l 1
835 193 m 0
 916 235 960 287 960 350 c 0
 960 438 886 517 782 517 c 0
 747 517 707 506 661 485 c 0
 553 437 430 336 291 180 c 1
 248 130 l 1
 491 130 l 2
 637 130 753 151 835 193 c 0
EndSplineSet
Validated: 1
EndChar

StartChar: Is
Encoding: 65565 -1 117
Width: 857
VWidth: 1524
GlyphClass: 2
Flags: MW
LayerCount: 2
Back
Fore
SplineSet
746 473 m 1
 345 357 139 185 139 -48 c 0
 139 -233 386 -294 596 -294 c 0
 629 -294 688 -293 770 -290 c 1
 782 -354 l 1
 712 -375 655 -385 608 -385 c 0
 472 -385 369 -368 302 -335 c 0
 167 -269 74 -202 74 -46 c 0
 74 113 152 253 309 377 c 2
 342 403 l 1
 308 425 l 1
 225 482 182 564 182 670 c 0
 182 784 288 889 397 889 c 2
 399 889 l 2
 468 889 540 875 612 849 c 1
 592 788 l 1
 549 798 487 803 408 803 c 0
 342 803 244 741 244 668 c 0
 244 577 309 507 431 456 c 1
 443 450 l 1
 516 486 612 521 730 552 c 1
 746 473 l 1
EndSplineSet
Validated: 1
EndChar

StartChar: If
Encoding: 65566 -1 118
Width: 885
VWidth: 1524
GlyphClass: 2
Flags: MW
LayerCount: 2
Back
Fore
SplineSet
720 572 m 0
 720 517 675 454 590 398 c 1
 593 391 l 1
 652 226 695 142 876 131 c 1
 876 40 l 1
 789 43 729 58 692 83 c 0
 632 124 581 211 540 347 c 2
 531 377 l 1
 501 366 l 1
 355 309 139 160 139 -43 c 0
 139 -100 165 -149 214 -190 c 1
 286 -248 402 -276 562 -277 c 0
 607 -277 673 -276 758 -273 c 1
 764 -348 l 1
 704 -362 645 -368 584 -368 c 2
 577 -368 l 2
 378 -368 240 -326 160 -246 c 0
 103 -189 75 -121 74 -43 c 1
 74 102 146 232 295 348 c 0
 348 388 411 423 481 452 c 2
 511 464 l 1
 496 493 l 2
 472 541 429 568 373 575 c 1
 369 641 l 1
 449 672 511 687 557 687 c 0
 644 687 720 648 720 572 c 0
EndSplineSet
Validated: 1
EndChar

StartChar: Ii
Encoding: 65567 -1 119
Width: 898
VWidth: 1524
GlyphClass: 2
Flags: MW
LayerCount: 2
Back
Fore
SplineSet
641 568 m 1
 554 588 489 598 436 598 c 0
 354 598 224 556 224 471 c 0
 224 422 242 373 277 324 c 0
 311 276 378 224 465 199 c 1
 468 199 l 1
 770 297 l 1
 790 211 l 1
 735 191 683 172 630 154 c 0
 413 77 225 40 70 40 c 2
 0 40 l 2
 -7 40 -18 41 -25 43 c 1
 -25 130 l 1
 70 130 l 2
 147 130 214 136 273 147 c 1
 334 161 l 1
 286 200 l 1
 202 270 161 360 161 471 c 0
 161 520 186 569 239 617 c 0
 292 664 354 688 428 688 c 0
 500 688 579 677 660 656 c 1
 641 568 l 1
EndSplineSet
Validated: 1
EndChar

StartChar: Im
Encoding: 65568 -1 120
Width: 698
VWidth: 1524
GlyphClass: 2
Flags: MW
LayerCount: 2
Back
Fore
SplineSet
130 49 m 1
 128 49 l 1
 102 43 77 40 55 40 c 2
 0 40 l 2
 -7 40 -18 41 -25 43 c 1
 -25 130 l 1
 55 130 l 2
 166 130 259 172 337 250 c 1
 334 257 l 1
 289 336 234 389 159 400 c 1
 156 462 l 1
 256 498 325 515 370 515 c 0
 455 515 526 476 526 402 c 0
 526 367 514 337 486 307 c 0
 452 271 438 254 419 238 c 1
 481 155 547 133 671 130 c 1
 671 40 l 1
 525 45 452 78 394 157 c 1
 375 184 l 1
 349 161 l 1
 282 97 208 61 130 49 c 1
EndSplineSet
Validated: 1
EndChar

StartChar: Fs
Encoding: 65569 -1 121
Width: 1543
VWidth: 1524
GlyphClass: 2
Flags: MW
LayerCount: 2
Back
Fore
SplineSet
197 567 m 1
 175 498 135 384 135 288 c 0
 135 130 405 100 569 100 c 0
 930 100 1184 128 1333 186 c 1
 1335 186 l 2
 1336 186 1335 187 1336 187 c 0
 1374 207 1395 255 1405 327 c 1
 1411 376 l 1
 1365 359 l 2
 1337 349 1302 344 1260 344 c 0
 1104 344 1033 396 1033 499 c 0
 1033 566 1048 624 1076 676 c 0
 1120 757 1162 794 1203 794 c 0
 1263 794 1319 767 1371 711 c 1
 1436 644 1469 562 1469 464 c 0
 1469 273 1443 162 1399 127 c 0
 1335 76 1160 38 876 19 c 0
 804 14 752 12 717 12 c 2
 572 12 l 2
 508 12 434 20 348 36 c 0
 198 64 74 139 74 302 c 0
 74 375 93 467 134 580 c 1
 197 567 l 1
1149 676 m 0
 1114 631 1096 572 1094 499 c 0
 1094 436 1190 434 1260 434 c 2
 1295 434 l 2
 1316 434 1363 448 1410 468 c 1
 1396 580 1340 658 1265 691 c 0
 1245 700 1226 706 1205 706 c 0
 1183 706 1163 695 1149 676 c 0
EndSplineSet
Validated: 1
EndChar

StartChar: Ff
Encoding: 65570 -1 122
Width: 1566
VWidth: 1524
GlyphClass: 2
Flags: MW
LayerCount: 2
Back
Fore
SplineSet
1111 384 m 0
 1111 349 1119 319 1137 296 c 0
 1154 274 1188 243 1228 216 c 1
 1244 227 l 1
 1338 284 1390 340 1390 398 c 0
 1390 457 1350 542 1288 545 c 1
 1215 543 1111 460 1111 384 c 0
1557 40 m 1
 1436 44 1327 72 1227 122 c 1
 1223 120 l 1
 1060 48 847 11 586 11 c 2
 580 11 l 2
 338 11 74 79 74 282 c 0
 74 368 94 468 134 580 c 1
 197 567 l 1
 177 504 135 382 135 296 c 0
 135 161 305 100 620 100 c 0
 772 100 929 121 1093 163 c 1
 1142 175 l 1
 1108 212 l 2
 1069 255 1050 311 1050 384 c 0
 1050 455 1093 524 1185 592 c 0
 1223 620 1260 633 1294 633 c 0
 1326 633 1361 611 1397 562 c 0
 1433 514 1451 458 1451 396 c 0
 1451 336 1419 273 1351 209 c 1
 1311 170 l 1
 1365 158 l 1
 1431 142 1496 133 1557 130 c 1
 1557 40 l 1
EndSplineSet
Validated: 1
EndChar

StartChar: Fi
Encoding: 65571 -1 123
Width: 698
VWidth: 1524
GlyphClass: 2
Flags: MW
LayerCount: 2
Back
Fore
SplineSet
261 681 m 0
 218 630 198 569 198 497 c 0
 198 435 277 432 338 432 c 2
 358 432 l 2
 408 432 464 445 516 467 c 1
 502 579 446 656 370 689 c 0
 349 698 329 704 310 704 c 0
 290 704 274 696 261 681 c 0
366 342 m 0
 209 342 138 394 138 497 c 0
 138 619 213 792 320 792 c 0
 370 792 426 762 486 699 c 0
 545 637 575 548 575 431 c 0
 575 260 550 159 508 126 c 0
 436 70 284 40 51 40 c 2
 0 40 l 2
 -7 40 -18 41 -25 43 c 1
 -25 130 l 1
 51 130 l 2
 190 130 291 137 352 155 c 0
 475 190 491 200 511 326 c 1
 518 375 l 1
 471 358 l 2
 441 347 406 342 366 342 c 0
EndSplineSet
Validated: 1
EndChar

StartChar: Fm
Encoding: 65572 -1 124
Width: 698
VWidth: 1524
GlyphClass: 2
Flags: MW
LayerCount: 2
Back
Fore
SplineSet
671 40 m 1
 543 44 432 70 338 117 c 1
 272 84 210 65 172 55 c 0
 133 45 88 40 39 40 c 2
 0 40 l 2
 -7 40 -18 41 -25 43 c 1
 -25 130 l 1
 39 130 l 2
 97 130 153 138 209 154 c 2
 256 168 l 1
 221 204 l 2
 176 251 154 305 154 368 c 0
 154 430 181 488 239 547 c 0
 297 606 347 634 386 634 c 0
 478 634 555 502 555 395 c 0
 555 333 524 270 460 207 c 2
 421 169 l 1
 474 157 l 2
 537 142 604 133 671 130 c 1
 671 40 l 1
382 544 m 0
 314 544 216 452 216 382 c 0
 216 286 287 254 346 207 c 1
 363 218 l 1
 450 271 497 331 497 399 c 0
 497 460 449 544 382 544 c 0
EndSplineSet
Validated: 1
EndChar

StartChar: Gs
Encoding: 65573 -1 125
Width: 1133
VWidth: 1524
GlyphClass: 2
Flags: MW
LayerCount: 2
Back
Fore
SplineSet
1059 20 m 2
 1059 -253 713 -352 400 -352 c 0
 200 -352 74 -263 74 -73 c 0
 74 21 112 138 187 279 c 1
 232 259 l 1
 170 128 140 27 140 -52 c 0
 140 -156 161 -183 227 -228 c 0
 263 -253 314 -264 376 -264 c 0
 687 -262 886 -208 967 -95 c 1
 986 -60 997 -23 998 20 c 1
 998 170 l 1
 959 158 l 2
 919 145 872 138 820 138 c 0
 674 138 608 188 608 288 c 0
 608 399 683 588 774 588 c 2
 776 588 l 2
 977 588 1059 353 1059 119 c 2
 1059 20 l 2
986 261 m 1
 969 338 935 401 903 439 c 0
 870 478 830 498 782 498 c 0
 702 498 669 366 669 296 c 0
 669 245 733 228 835 228 c 0
 885 228 936 242 986 261 c 1
EndSplineSet
Validated: 1
EndChar

StartChar: Gf
Encoding: 65574 -1 126
Width: 1224
VWidth: 1524
GlyphClass: 2
Flags: MW
LayerCount: 2
Back
Fore
SplineSet
1003 169 m 1
 991 352 933 453 821 453 c 0
 744 453 709 313 709 247 c 0
 709 217 729 193 763 177 c 0
 798 161 865 148 970 137 c 1
 1006 134 l 1
 1003 169 l 1
994 49 m 1
 808 58 649 94 649 245 c 0
 649 365 722 542 821 544 c 1
 973 544 1055 422 1063 162 c 1
 1065 135 l 1
 1101 130 1143 130 1183 130 c 2
 1215 130 l 1
 1215 40 l 1
 1182 40 1135 42 1075 45 c 1
 1066 45 l 1
 1064 15 l 1
 1055 -256 713 -352 400 -352 c 0
 200 -352 74 -263 74 -73 c 0
 74 21 112 138 187 279 c 1
 232 259 l 1
 170 128 140 27 140 -52 c 0
 140 -200 226 -264 376 -264 c 0
 612 -263 785 -231 897 -164 c 1
 967 -117 1004 -53 1004 22 c 2
 1004 49 l 1
 994 49 l 1
EndSplineSet
Validated: 1
EndChar

StartChar: Qs
Encoding: 65575 -1 127
Width: 1249
VWidth: 1524
GlyphClass: 2
Flags: MW
LayerCount: 2
Back
Fore
SplineSet
439 18 m 0
 319 18 216 37 131 73 c 1
 158 150 l 1
 236 123 339 110 467 110 c 0
 720 110 873 121 930 147 c 0
 988 173 1016 236 1016 329 c 2
 1016 1121 l 1
 1076 1121 l 1
 1076 329 l 2
 1076 189 1042 106 980 76 c 1
 929 50 793 30 577 20 c 0
 538 19 492 18 439 18 c 0
501 718 m 0
 501 798 608 865 695 874 c 1
 695 832 l 1
 631 827 583 809 547 775 c 0
 535 763 524 744 524 726 c 0
 524 696.52830267 559.076997409 683.420078318 584 670 c 1
 623 651 l 2
 667 630 686 603 686 568 c 0
 686 535 655 502 580 472 c 0
 530 452 484 440 444 436 c 1
 444 476 l 1
 527 479 593 496 640 527 c 1
 654 535 662 548 662 564 c 0
 662 595 646 600 629 607 c 1
 592 625 l 2
 556 643 532 660 519 673 c 0
 507 686 501 700 501 718 c 0
EndSplineSet
Validated: 1
EndChar

StartChar: Qf
Encoding: 65576 -1 128
Width: 1316
VWidth: 1524
GlyphClass: 2
Flags: MW
LayerCount: 2
Back
Fore
SplineSet
501 718 m 0
 501 798 608 865 695 874 c 1
 695 832 l 1
 631 827 583 809 547 775 c 0
 535 763 524 744 524 726 c 0
 524 696.52830267 559.076997409 683.420078318 584 670 c 1
 623 651 l 2
 667 630 686 603 686 568 c 0
 686 535 655 502 580 472 c 0
 530 452 484 440 444 436 c 1
 444 476 l 1
 527 479 593 496 640 527 c 1
 654 535 662 548 662 564 c 0
 662 595 646 600 629 607 c 1
 592 625 l 2
 556 643 532 660 519 673 c 0
 507 686 501 700 501 718 c 0
537 18 m 0
 343 18 249 26 132 74 c 1
 158 150 l 1
 236 123 339 110 467 110 c 0
 711 110 859 121 916 147 c 0
 974 173 1002 236 1002 329 c 2
 1002 1121 l 1
 1062 1121 l 1
 1062 382 l 2
 1062 295 1074 236 1101 205 c 0
 1148 152 1201 133 1289 130 c 1
 1289 40 l 1
 1174 43 1115 68 1066 128 c 1
 1040 158 l 1
 1018 126 l 1
 995 90 958 67 907 55 c 1
 778 30 654 18 537 18 c 0
EndSplineSet
Validated: 1
EndChar

StartChar: Ks
Encoding: 65577 -1 129
Width: 1725
VWidth: 1524
GlyphClass: 2
Flags: MW
LayerCount: 2
Back
Fore
SplineSet
1046 742 m 1
 1088 718 l 1
 1274 609 1432 478 1432 299 c 0
 1432 111 1230 11 699 11 c 0
 545 11 371 34 276 83 c 0
 182 131 131 197 131 282 c 0
 131 368 156 468 197 580 c 1
 260 567 l 1
 238 500 198 383 198 288 c 0
 198 223 244 177 329 146 c 0
 416 114 575 93 708 93 c 0
 984 93 1370 97 1370 299 c 0
 1370 402 1290 500 1138 592 c 0
 1100 616 1058 639 1016 663 c 1
 1032 830 l 1
 1197 941 1357 1036 1515 1116 c 0
 1556 1137 1595 1154 1630 1167 c 1
 1654 1081 l 1
 1497 1019 1307 916 1086 769 c 1
 1046 742 l 1
EndSplineSet
Validated: 1
EndChar

StartChar: Kf
Encoding: 65578 -1 130
Width: 1825
VWidth: 1524
GlyphClass: 2
Flags: MW
LayerCount: 2
Back
Fore
SplineSet
671 11 m 2
 628 11 l 2
 396 11 137 83 137 282 c 0
 137 368 157 468 197 580 c 1
 260 567 l 1
 251 541 241 506 225 460 c 0
 207 406 198 348 198 288 c 0
 198 223 244 177 328 146 c 0
 412 115 518 100 649 100 c 0
 886 100 1064 115 1184 144 c 0
 1304 173 1370 225 1370 299 c 0
 1370 402 1290 500 1138 592 c 0
 1100 616 1058 639 1016 663 c 1
 1032 830 l 1
 1197 941 1357 1036 1515 1116 c 0
 1556 1137 1595 1154 1630 1167 c 1
 1654 1081 l 1
 1495 1019 1307 915 1085 769 c 1
 1045 742 l 1
 1087 718 l 1
 1251 619 1372 533 1446 459 c 0
 1521 384 1571 324 1595 281 c 0
 1641 198 1700 141 1798 131 c 1
 1798 42 l 1
 1690 52 1608 114 1548 233 c 0
 1535 258 1514 289 1484 324 c 2
 1433 386 l 1
 1431 305 l 2
 1429 188 1345 108 1170 61 c 0
 1063 32 968 16 884 14 c 0
 799 12 728 11 671 11 c 2
EndSplineSet
Validated: 1
EndChar

StartChar: Ki
Encoding: 65579 -1 131
Width: 796
VWidth: 1524
GlyphClass: 2
Flags: MW
LayerCount: 2
Back
Fore
SplineSet
106 40 m 2
 2 40 l 2
 -6 40 -17 41 -25 43 c 1
 -25 130 l 1
 55 130 l 2
 214 130 327 158 395 215 c 0
 422 238 437 270 437 308 c 0
 437 377 398 444 323 508 c 0
 273 551 191 603 84 663 c 1
 100 830 l 1
 267 942 426 1038 582 1116 c 0
 623 1137 662 1154 698 1167 c 1
 721 1081 l 1
 564 1019 375 916 153 769 c 1
 113 742 l 1
 155 718 l 2
 268 653 344 598 384 553 c 0
 462 467 499 387 499 314 c 0
 499 275 493 243 483 220 c 0
 453 153 383 103 271 69 c 0
 207 50 152 40 106 40 c 2
EndSplineSet
Validated: 1
EndChar

StartChar: Km
Encoding: 65580 -1 132
Width: 898
VWidth: 1524
GlyphClass: 2
Flags: MW
LayerCount: 2
Back
Fore
SplineSet
498 401 m 1
 498 308 l 2
 498 118 269 40 55 40 c 2
 0 40 l 2
 -7 40 -18 41 -25 43 c 1
 -25 130 l 1
 55 130 l 2
 214 130 327 158 395 215 c 0
 422 238 437 270 437 308 c 0
 437 377 398 444 323 508 c 0
 273 551 191 603 84 663 c 1
 100 830 l 1
 267 942 426 1038 582 1116 c 0
 623 1137 662 1154 698 1167 c 1
 721 1081 l 1
 562 1019 374 915 152 769 c 1
 112 742 l 1
 154 718 l 1
 317 620 436 536 509 465 c 0
 583 393 633 332 659 285 c 0
 687 235 718 199 751 174 c 0
 783 150 823 136 870 132 c 1
 870 42 l 1
 758 52 675 112 617 229 c 0
 596 273 575 293 552 326 c 2
 498 401 l 1
EndSplineSet
Validated: 1
EndChar

StartChar: Ls
Encoding: 65581 -1 133
Width: 1236
VWidth: 1524
GlyphClass: 2
Flags: MW
LayerCount: 2
Back
Fore
SplineSet
1066 20 m 2
 1066 -253 756 -352 446 -352 c 0
 246 -352 120 -263 120 -73 c 0
 120 21 158 138 233 279 c 1
 278 259 l 1
 216 128 186 27 186 -52 c 0
 186 -156 207 -183 273 -228 c 0
 309 -253 360 -264 422 -264 c 0
 715 -263 902 -209 979 -95 c 0
 997 -68 1006 -44 1006 -23 c 2
 1006 1121 l 1
 1066 1121 l 1
 1066 20 l 2
EndSplineSet
Validated: 1
EndChar

StartChar: Lf
Encoding: 65582 -1 134
Width: 1316
VWidth: 1524
GlyphClass: 2
Flags: MW
LayerCount: 2
Back
Fore
SplineSet
1066 20 m 2
 1066 -253 756 -352 446 -352 c 0
 246 -352 120 -263 120 -73 c 0
 120 21 158 138 233 279 c 1
 278 259 l 1
 216 128 186 27 186 -52 c 0
 186 -156 207 -183 273 -228 c 0
 309 -253 360 -264 422 -264 c 0
 715 -263 902 -209 979 -95 c 0
 997 -68 1006 -44 1006 -23 c 2
 1006 1121 l 1
 1066 1121 l 1
 1066 292 l 2
 1066 189 1146 136 1289 130 c 1
 1289 40 l 1
 1215 43 1155 56 1109 79 c 2
 1066 100 l 1
 1066 20 l 2
EndSplineSet
Validated: 1
EndChar

StartChar: Li
Encoding: 65583 -1 135
Width: 507
VWidth: 1524
GlyphClass: 2
Flags: MW
LayerCount: 2
Back
Fore
SplineSet
-25 130 m 1
 76 130 l 2
 216 130 270 198 270 329 c 2
 270 1121 l 1
 330 1121 l 1
 330 329 l 2
 330 208 307 131 267 95 c 0
 226 58 163 40 76 40 c 2
 0 40 l 2
 -7 40 -18 41 -25 43 c 1
 -25 130 l 1
EndSplineSet
Validated: 1
EndChar

StartChar: Lm
Encoding: 65584 -1 136
Width: 548
VWidth: 1524
GlyphClass: 2
Flags: MW
LayerCount: 2
Back
Fore
SplineSet
283 1121 m 1
 283 364 l 1
 285 202 362 138 521 130 c 1
 521 40 l 1
 403 44 328 73 286 121 c 2
 260 151 l 1
 239 118 l 1
 217 86 193 68 171 62 c 0
 121 47 73 40 27 40 c 2
 0 40 l 2
 -7 40 -18 41 -25 43 c 1
 -25 130 l 1
 27 130 l 2
 168 130 222 197 222 329 c 2
 222 1121 l 1
 283 1121 l 1
EndSplineSet
Validated: 1
EndChar

StartChar: Ms
Encoding: 65585 -1 137
Width: 1004
VWidth: 1524
GlyphClass: 2
Flags: MW
LayerCount: 2
Back
Fore
SplineSet
203 -443 m 1
 207 -441 l 1
 154 -8 128 249 128 328 c 0
 128 400 181 447 300 470 c 0
 337 477 372 483 409 488 c 2
 444 493 l 1
 434 527 l 2
 429 544 425 572 425 610 c 0
 425 722 491 845 587 845 c 2
 589 845 l 1
 636 844 681 828 728 794 c 0
 793 747 837 682 860 598 c 0
 867 574 870 549 870 523 c 0
 870 497 866 470 856 444 c 1
 826 351 l 1
 723 388 610 406 488 406 c 0
 363 406 273 395 220 371 c 0
 201 363 188 349 188 330 c 0
 188 249 215 -7 269 -432 c 1
 203 -443 l 1
790 457 m 1
 801 480 810 504 810 532 c 0
 810 580 788 629 746 678 c 0
 703 728 650 754 588 754 c 0
 518 754 486 677 486 594 c 0
 486 565 497 528 516 496 c 1
 534 496 l 1
 607 495 700 483 790 457 c 1
EndSplineSet
Validated: 1
EndChar

StartChar: Mf
Encoding: 65586 -1 138
Width: 1145
VWidth: 1524
GlyphClass: 2
Flags: MW
LayerCount: 2
Back
Fore
SplineSet
752 360 m 2
 728 406 l 1
 700 362 l 2
 656 293 633 219 633 140 c 1
 634 112 645 82 666 52 c 1
 688 7 718 -15 752 -15 c 0
 827 -15 877 35 907 124 c 1
 881 159 852 189 831 223 c 2
 786 298 l 2
 774 317 763 338 752 360 c 2
571 140 m 1
 571 218 593 314 640 396 c 1
 581 438 504 458 404 458 c 0
 309 458 241 434 205 383 c 0
 194 366 188 348 188 330 c 0
 188 249 215 -7 269 -432 c 1
 208 -442 l 1
 155 -8 128 238 128 292 c 0
 128 395 144 435 195 479 c 0
 247 524 312 548 392 548 c 0
 473 548 541 536 598 514 c 2
 679 482 l 1
 609 600 l 1
 664 640 l 1
 872 289 l 2
 937 178 1002 139 1117 131 c 1
 1117 40 l 1
 1061 42 1020 52 988 67 c 2
 960 81 l 1
 948 52 l 1
 908 -52 843 -103 748 -103 c 0
 726 -103 706 -97 685 -83 c 0
 629 -43 575 41 571 140 c 1
EndSplineSet
Validated: 1
EndChar

StartChar: Mi
Encoding: 65587 -1 139
Width: 850
VWidth: 1524
GlyphClass: 2
Flags: MW
LayerCount: 2
Back
Fore
SplineSet
598 4 m 0
 480 4 365 57 277 160 c 1
 233 122 189 90 136 69 c 0
 86 50 50 41 26 41 c 0
 5 41 -12 41 -25 43 c 1
 -25 130 l 1
 0 130 l 2
 108 130 196 174 262 260 c 0
 326 344 370 396 392 416 c 0
 440 460 484 480 522 480 c 0
 559 480 601 451 650 389 c 0
 698 327 722 266 722 207 c 0
 722 98 694 36 644 14 c 0
 628 8 612 4 598 4 c 0
320 219 m 1
 393 146 476 95 587 95 c 2
 589 95 l 2
 638 95 660 137 660 205 c 0
 660 289 578 390 514 390 c 0
 451 390 374 283 320 219 c 1
EndSplineSet
Validated: 1
EndChar

StartChar: Mm
Encoding: 65588 -1 140
Width: 1004
VWidth: 1524
GlyphClass: 2
Flags: MW
LayerCount: 2
Back
Fore
SplineSet
308 230 m 1
 377 122 447 65 520 65 c 0
 597 65 618 147 618 224 c 0
 618 276 598 322 562 363 c 0
 549 374 531 380 508 380 c 0
 467 379 406 335 321 253 c 1
 303 237 l 1
 308 230 l 1
725 154 m 1
 687 197 l 1
 673 140 l 1
 652 44 618 -24 522 -24 c 0
 440 -24 358 34 277 154 c 1
 256 183 l 1
 231 158 l 2
 151 78 74 40 0 40 c 0
 -7 40 -18 41 -25 43 c 1
 -25 130 l 1
 0 130 l 2
 118 130 193 226 271 308 c 0
 376 419 457 472 512 472 c 2
 514 472 l 2
 541 472 578 448 624 393 c 1
 748 240 l 1
 801 172 880 136 978 130 c 1
 978 40 l 1
 844 47 788 86 725 154 c 1
EndSplineSet
Validated: 1
EndChar

StartChar: Ns
Encoding: 65589 -1 141
Width: 1177
VWidth: 1524
GlyphClass: 2
Flags: MW
LayerCount: 2
Back
Fore
SplineSet
981 -95 m 1
 999 -61 1008 -23 1008 20 c 0
 1008 120 931 322 892 406 c 1
 949 436 l 1
 1001 317 1038 205 1062 93 c 0
 1070 52 1074 15 1074 -22 c 0
 1074 -51 1066 -83 1049 -115 c 1
 1002 -213 904 -279 755 -317 c 1
 659 -340 569 -352 487 -352 c 0
 329 -352 227 -325 164 -240 c 0
 135 -200 120 -149 120 -86 c 0
 120 16 158 138 233 279 c 1
 278 259 l 1
 216 128 186 27 186 -52 c 0
 186 -143 205 -179 257 -217 c 1
 304 -248 359 -264 424 -264 c 0
 717 -263 904 -209 981 -95 c 1
EndSplineSet
Validated: 1
EndChar

StartChar: Nf
Encoding: 65590 -1 142
Width: 1268
VWidth: 1524
GlyphClass: 2
Flags: MW
LayerCount: 2
Back
Fore
SplineSet
1066 20 m 2
 1066 -253 756 -352 446 -352 c 0
 246 -352 120 -263 120 -73 c 0
 120 21 158 138 233 279 c 1
 278 259 l 1
 216 128 186 27 186 -52 c 0
 186 -156 207 -183 273 -228 c 0
 309 -253 360 -264 422 -264 c 0
 714 -263 901 -209 978 -95 c 1
 996 -61 1005 -23 1005 18 c 0
 1005 94 971 187 905 293 c 1
 961 334 l 1
 995 282 l 1
 1034 220 1070 178 1106 159 c 0
 1139 141 1186 132 1241 130 c 1
 1241 40 l 1
 1180 43 1139 55 1114 73 c 2
 1066 108 l 1
 1066 20 l 2
EndSplineSet
Validated: 1
EndChar

StartChar: Vs
Encoding: 65591 -1 143
Width: 840
VWidth: 1524
GlyphClass: 2
Flags: MW
LayerCount: 2
Back
Fore
SplineSet
369 407 m 0
 341 353 326 304 326 261 c 0
 326 217 366 198 425 198 c 1
 440 197 463 196 497 196 c 0
 533 196 588 212 644 236 c 1
 629 343 600 422 543 467 c 0
 523 483 501 491 477 491 c 0
 433 491 398 461 369 407 c 0
630 84 m 1
 646 141 l 1
 591 121 l 2
 560 110 530 105 502 105 c 0
 402 105 339 120 311 147 c 0
 282 175 266 216 266 274 c 0
 266 331 290 396 340 471 c 0
 391 547 436 581 473 581 c 0
 535 580 590 542 635 461 c 0
 680 379 703 297 703 212 c 0
 703 126 694 59 678 14 c 0
 649 -73 595 -152 516 -224 c 1
 439 -288 330 -348 189 -404 c 1
 164 -319 l 1
 429 -211 586 -78 630 84 c 1
EndSplineSet
Validated: 1
EndChar

StartChar: Vf
Encoding: 65592 -1 144
Width: 981
VWidth: 1524
GlyphClass: 2
Flags: MW
LayerCount: 2
Back
Fore
SplineSet
652 136 m 1
 655 166 658 194 658 241 c 0
 658 284 645 335 620 396 c 0
 594 458 555 491 501 491 c 0
 461 491 427 460 399 407 c 0
 376 364 355 315 355 272 c 0
 355 238 369 208 404 189 c 0
 449 165 538 147 652 136 c 1
637 54 m 1
 423 85 290 102 290 267 c 0
 290 329 318 391 367 469 c 0
 416 546 462 581 501 581 c 0
 543 581 589 565 629 520 c 0
 677 467 729 331 729 202 c 2
 729 135 l 1
 770 130 808 130 853 130 c 0
 885.666666667 130 918.333333333 130 951 130 c 1
 951 40 l 1
 936 40 l 2
 827 40 767 43 714 50 c 1
 711 42 l 1
 683 -56 618 -143 538 -217 c 1
 460 -283 347 -346 202 -404 c 1
 177 -319 l 1
 412 -221 561 -109 619 18 c 1
 637 54 l 1
EndSplineSet
Validated: 1
EndChar

StartChar: Hs
Encoding: 65593 -1 145
Width: 855
VWidth: 1524
GlyphClass: 2
Flags: MW
LayerCount: 2
Back
Fore
SplineSet
358 582 m 1
 247 449 184 334 184 246 c 0
 184 148 290 112 408 112 c 0
 454 112 510 127 578 156 c 0
 646 186 684 225 684 278 c 0
 684 377 574 475 365 579 c 1
 358 582 l 1
677 143 m 0
 623 84 503 21 368 21 c 0
 235 21 124 114 124 246 c 0
 124 333 172 446 268 584 c 0
 300 629 327 662 347 679 c 1
 396 660 441 638 485 609 c 0
 661 497 745 383 745 274 c 0
 745 238 723 194 677 143 c 0
EndSplineSet
Validated: 1
EndChar

StartChar: Hf
Encoding: 65594 -1 146
Width: 912
VWidth: 1524
GlyphClass: 2
Flags: MW
LayerCount: 2
Back
Fore
SplineSet
631 209 m 1
 535 607 l 1
 503 595 l 1
 308 523 204 431 204 315 c 0
 204 256 299 233 458 226 c 0
 508 223 548 220 576 219 c 1
 556 131 l 1
 423 140 338 150 300 161 c 0
 192 194 144 242 144 305 c 0
 144 433 211 537 350 619 c 1
 393 646 446 670 508 691 c 1
 517 693 l 1
 491 806 l 1
 550 823 l 1
 672 286 l 1
 695 174 767 132 883 130 c 1
 883 40 l 1
 826 42 783 49 756 60 c 0
 700 84 658 133 631 209 c 1
EndSplineSet
Validated: 1
EndChar

StartChar: Hi
Encoding: 65595 -1 147
Width: 981
VWidth: 1524
GlyphClass: 2
Flags: MW
LayerCount: 2
Back
Fore
SplineSet
255 833 m 1
 334 790 402 749 465 707 c 1
 466 707 l 1
 590 633 685 547 755 446 c 0
 826 344 860 265 860 210 c 0
 860 99 770 -4 661 -4 c 0
 584 -4 393 48 324 100 c 1
 320 98 l 1
 217 64 113 40 0 40 c 0
 -7 40 -18 41 -25 43 c 1
 -25 130 l 1
 0 130 l 2
 63 130 124 135 184 146 c 1
 236 157 l 1
 200 196 l 2
 155 246 132 306 132 377 c 0
 132 495 185 593 292 670 c 1
 332 698 l 1
 287 721 l 2
 273 728 251 741 223 755 c 1
 255 833 l 1
462 123 m 2
 540 99 601 87 650 87 c 0
 734 87 800 126 800 208 c 0
 800 243 784 284 755 333 c 0
 725 382 679 435 617 493 c 2
 560 546 l 1
 566 468 l 2
 567 452 568 439 568 429 c 2
 568 403 l 2
 568 313 530 237 453 176 c 2
 408 140 l 1
 462 123 l 2
318 186 m 1
 322 188 l 1
 442 228 507 307 507 403 c 0
 507 544 482 628 415 628 c 0
 362 628 308 592 276 562 c 0
 220 509 192 445 192 370 c 0
 192 294 236 227 318 186 c 1
EndSplineSet
Validated: 1
EndChar

StartChar: Hm
Encoding: 65596 -1 148
Width: 850
VWidth: 1524
GlyphClass: 2
Flags: MW
LayerCount: 2
Back
Fore
SplineSet
193 49 m 1
 150 44 106 40 84 40 c 2
 0 40 l 2
 -7 40 -18 41 -25 43 c 1
 -25 130 l 1
 84 130 l 2
 105 130 126 131 147 132 c 2
 182 134 l 1
 176 168 l 2
 175 173 174 178 174 184 c 2
 174 209 l 2
 174 370 196 499 239 596 c 0
 258 638 277 668 297 687 c 0
 317 706 334 714 346 714 c 0
 379 714 419 695 464 656 c 0
 537 593 624 463 624 339 c 0
 624 288 596 237 534 185 c 0
 472 133 391 93 289 65 c 2
 257 56 l 1
 269 24 l 2
 308 -79 380 -167 484 -237 c 1
 534 -268 l 1
 530 -208 l 2
 529 -202 529 -193 529 -183 c 2
 529 -150 l 2
 529 -87 553 -24 604 43 c 1
 654 102 718 130 797 130 c 2
 822 130 l 1
 822 40 l 1
 797 40 l 2
 683 40 588 -34 588 -183 c 0
 588 -219 593 -251 601 -276 c 1
 572 -375 l 1
 374 -288 251 -155 201 25 c 1
 193 49 l 1
449 203 m 0
 522 248 564 290 565 334 c 0
 565 448 462 624 345 624 c 0
 322 624 304 611 292 589 c 0
 253 516 235 390 235 209 c 1
 234 189 l 2
 234 184 237 157 240 143 c 1
 271 147 l 1
 351 161 410 179 449 203 c 0
EndSplineSet
Validated: 1
EndChar

StartChar: Ys
Encoding: 65597 -1 149
Width: 1400
VWidth: 1524
GlyphClass: 2
Flags: MW
LayerCount: 2
Back
Fore
SplineSet
1090 453 m 0
 990 453 822 348 822 249 c 0
 822 225 836 207 859 195 c 0
 882 183 928 168 999 148 c 0
 1125 109 1182 50 1182 -24 c 0
 1182 -34 1181 -44 1178 -54 c 0
 1136 -232 925 -325 530 -325 c 2
 492 -325 l 1
 239 -322 119 -234 119 -60 c 0
 119 44 157 168 233 309 c 1
 279 286 l 1
 273 275 266 264 259 252 c 0
 209 153 184 50 184 -57 c 0
 184 -177 284 -235 468 -235 c 0
 670 -235 840 -212 979 -168 c 0
 1064 -140 1113 -105 1113 -57 c 2
 1113 -54 l 2
 1113 -20 1099 9 1074 29 c 0
 1049 44 1002 60 930 79 c 0
 859 98 812 120 791 141 c 0
 771 162 760 199 760 256 c 0
 760 309 798 374 876 444 c 0
 954 514 1027 548 1097 548 c 0
 1164 548 1226 508 1284 424 c 1
 1226 377 l 1
 1188 427 1143 453 1090 453 c 0
EndSplineSet
Validated: 1
EndChar

StartChar: Yf
Encoding: 65598 -1 150
Width: 1308
VWidth: 1524
GlyphClass: 2
Flags: MW
LayerCount: 2
Back
Fore
SplineSet
1013 82 m 2
 876 108 l 1
 906 178 l 1
 1006 169 1167 134 1278 130 c 1
 1278 40 l 1
 1193 44 1076 70 1013 82 c 2
278 259 m 1
 219 146 184 76 184 -86 c 0
 184 -212 316 -270 558 -270 c 0
 612 -270 695 -265 809 -255 c 0
 924 -245 998 -232 1036 -212 c 0
 1056 -201 1065 -182 1065 -156 c 0
 1065 -91 988 -27 849 44 c 1
 875 104 l 1
 990 27 l 1
 1080 -41 1122 -104 1122 -161 c 0
 1122 -288 924 -360 498 -360 c 0
 318 -360 203 -307 147 -206 c 0
 129 -172 119 -136 119 -97 c 0
 119 14 157 141 233 279 c 1
 278 259 l 1
EndSplineSet
Validated: 1
EndChar

StartChar: LAs
Encoding: 65599 -1 151
Width: 1126
VWidth: 1524
GlyphClass: 2
Flags: MW
LayerCount: 2
Back
Fore
SplineSet
427 -12 m 1
 460 4 502 24 555 49 c 1
 562 51 l 1
 561 83 l 1
 561 84 l 1
 535 407 465 634 285 791 c 1
 328 871 l 1
 491 721 588 472 619 118 c 1
 623 70 l 1
 661 85 l 1
 739 118 791 144 820 168 c 0
 876 216 906 266 906 319 c 2
 906 1141 l 1
 966 1141 l 1
 966 319 l 2
 966 223 927 149 848 94 c 1
 768 29 664 -27 536 -70 c 1
 447 -98 l 1
 427 -12 l 1
EndSplineSet
Validated: 1
EndChar

StartChar: uniFEFB
Encoding: 65275 65275 152
Width: 1004
VWidth: 1524
GlyphClass: 3
LigCaretCntFixed: 1
Flags: MW
AnchorPoint: "Anchor-3" 739 -75 baselig 0
AnchorPoint: "Anchor-2" 703 1274 baselig 0
AnchorPoint: "Anchor-3" 234 -169 baselig 1
AnchorPoint: "Anchor-2" 164 1204 baselig 1
LayerCount: 2
Back
Fore
SplineSet
299 -12 m 1
 370 18 403 38 435 54 c 1
 434 83 l 1
 412 374 397 497 315 725 c 0
 278 829 226 924 160 1006 c 1
 209 1061 l 1
 368 862 463 549 492 119 c 1
 495 70 l 1
 533 85 l 2
 609 116 661 142 691 166 c 1
 692 166 l 1
 749 214 779 265 779 319 c 2
 779 1141 l 1
 838 1141 l 1
 838 319 l 2
 838 200 767 106 620 32 c 1
 560 -4 490 -38 409 -70 c 1
 319 -99 l 1
 299 -12 l 1
EndSplineSet
Validated: 513
Ligature2: "'rlig' Required Ligatures in Arabic lookup 2 subtable" lam.init alef.fina8E
PairPos2: "'kern' Horizontal Kerning in Arabic lookup 0 subtable" gaf_ye.farsi.isol dx=50 dy=0 dh=50 dv=0 dx=0 dy=0 dh=0 dv=0
PairPos2: "'kern' Horizontal Kerning in Arabic lookup 0 subtable" kaf.farsi_ye.farsi.isol dx=50 dy=0 dh=50 dv=0 dx=0 dy=0 dh=0 dv=0
PairPos2: "'kern' Horizontal Kerning in Arabic lookup 0 subtable" uniFEDB dx=50 dy=0 dh=50 dv=0 dx=0 dy=0 dh=0 dv=0
PairPos2: "'kern' Horizontal Kerning in Arabic lookup 0 subtable" uniFE83 dx=62 dy=0 dh=62 dv=0 dx=0 dy=0 dh=0 dv=0
PairPos2: "'kern' Horizontal Kerning in Arabic lookup 0 subtable" uniFE81 dx=62 dy=0 dh=62 dv=0 dx=0 dy=0 dh=0 dv=0
PairPos2: "'kern' Horizontal Kerning in Arabic lookup 0 subtable" kaf.init dx=50 dy=0 dh=50 dv=0 dx=0 dy=0 dh=0 dv=0
PairPos2: "'kern' Horizontal Kerning in Arabic lookup 0 subtable" uniFB8E dx=50 dy=0 dh=50 dv=0 dx=0 dy=0 dh=0 dv=0
PairPos2: "'kern' Horizontal Kerning in Arabic lookup 0 subtable" uniFB50 dx=62 dy=0 dh=62 dv=0 dx=0 dy=0 dh=0 dv=0
PairPos2: "'kern' Horizontal Kerning in Arabic lookup 0 subtable" gaf.init dx=50 dy=0 dh=50 dv=0 dx=0 dy=0 dh=0 dv=0
PairPos2: "'kern' Horizontal Kerning in Arabic lookup 0 subtable" uniFB92 dx=50 dy=0 dh=50 dv=0 dx=0 dy=0 dh=0 dv=0
LCarets2: 1 496 
EndChar

StartChar: LAf
Encoding: 65600 -1 153
Width: 1229
VWidth: 1524
GlyphClass: 2
Flags: MW
LayerCount: 2
Back
Fore
SplineSet
964 329 m 2
 964 178 1050 134 1201 130 c 1
 1201 40 l 1
 1084 42 1038 55 981 94 c 1
 965 108 952 123 941 141 c 2
 920 177 l 1
 892 146 l 1
 815 47 695 -20 529 -52 c 1
 385 -77 l 1
 373 32 l 1
 597 70 l 1
 577 249 553 387 522 469 c 0
 465 622 387 739 289 823 c 1
 329 890 l 1
 480 755 577 572 620 341 c 0
 633 269 644 199 651 129 c 1
 656 90 l 1
 692 104 l 2
 830 157 903 231 903 329 c 2
 903 1121 l 1
 964 1121 l 1
 964 329 l 2
EndSplineSet
Validated: 1
EndChar

StartChar: uniFEFC
Encoding: 65276 65276 154
Width: 1077
VWidth: 1524
GlyphClass: 3
LigCaretCntFixed: 1
Flags: MW
AnchorPoint: "Anchor-3" 739 -75 baselig 0
AnchorPoint: "Anchor-2" 703 1274 baselig 0
AnchorPoint: "Anchor-3" 234 -169 baselig 1
AnchorPoint: "Anchor-2" 164 1204 baselig 1
LayerCount: 2
Back
Fore
SplineSet
437 70 m 1
 433 108 429 154 422 239 c 0
 398 568 310 821 159 997 c 1
 208 1052 l 1
 373 847 467 540 491 127 c 1
 494 87 l 1
 531 101 l 2
 673 155 750 230 750 329 c 2
 750 1121 l 1
 811 1121 l 1
 811 329 l 1
 812 220 865 154 967 137 c 0
 990 133 1019 131 1049 130 c 1
 1049 40 l 1
 911 42 831 69 789 141 c 2
 768 177 l 1
 740 146 l 1
 664 49 544 -18 377 -52 c 1
 234 -77 l 1
 222 32 l 1
 437 70 l 1
EndSplineSet
Validated: 513
Ligature2: "'rlig' Required Ligatures in Arabic lookup 2 subtable" lam.medi alef.fina8E
PairPos2: "'kern' Horizontal Kerning in Arabic lookup 0 subtable" gaf_ye.farsi.isol dx=50 dy=0 dh=50 dv=0 dx=0 dy=0 dh=0 dv=0
PairPos2: "'kern' Horizontal Kerning in Arabic lookup 0 subtable" kaf.farsi_ye.farsi.isol dx=50 dy=0 dh=50 dv=0 dx=0 dy=0 dh=0 dv=0
PairPos2: "'kern' Horizontal Kerning in Arabic lookup 0 subtable" uniFEDB dx=50 dy=0 dh=50 dv=0 dx=0 dy=0 dh=0 dv=0
PairPos2: "'kern' Horizontal Kerning in Arabic lookup 0 subtable" uniFE83 dx=62 dy=0 dh=62 dv=0 dx=0 dy=0 dh=0 dv=0
PairPos2: "'kern' Horizontal Kerning in Arabic lookup 0 subtable" uniFE81 dx=62 dy=0 dh=62 dv=0 dx=0 dy=0 dh=0 dv=0
PairPos2: "'kern' Horizontal Kerning in Arabic lookup 0 subtable" kaf.init dx=50 dy=0 dh=50 dv=0 dx=0 dy=0 dh=0 dv=0
PairPos2: "'kern' Horizontal Kerning in Arabic lookup 0 subtable" uniFB8E dx=50 dy=0 dh=50 dv=0 dx=0 dy=0 dh=0 dv=0
PairPos2: "'kern' Horizontal Kerning in Arabic lookup 0 subtable" uniFB50 dx=62 dy=0 dh=62 dv=0 dx=0 dy=0 dh=0 dv=0
PairPos2: "'kern' Horizontal Kerning in Arabic lookup 0 subtable" gaf.init dx=50 dy=0 dh=50 dv=0 dx=0 dy=0 dh=0 dv=0
PairPos2: "'kern' Horizontal Kerning in Arabic lookup 0 subtable" uniFB92 dx=50 dy=0 dh=50 dv=0 dx=0 dy=0 dh=0 dv=0
LCarets2: 1 579 
EndChar

StartChar: D1
Encoding: 65601 -1 155
Width: 495
VWidth: 1524
GlyphClass: 5
Flags: MW
LayerCount: 2
Back
Fore
SplineSet
152 963 m 1
 248 963 l 1
 248 868 l 1
 152 868 l 1
 152 963 l 1
EndSplineSet
Validated: 1
EndChar

StartChar: D2
Encoding: 65602 -1 156
Width: 548
VWidth: 1524
GlyphClass: 5
Flags: MW
LayerCount: 2
Back
Fore
SplineSet
267 963 m 1
 363 963 l 1
 363 868 l 1
 267 868 l 1
 267 963 l 1
38 963 m 1
 133 963 l 1
 133 868 l 1
 38 868 l 1
 38 963 l 1
EndSplineSet
Validated: 1
EndChar

StartChar: D3
Encoding: 65603 -1 157
Width: 548
VWidth: 1524
GlyphClass: 5
Flags: MW
LayerCount: 2
Back
Fore
SplineSet
151 1201 m 1
 247 1201 l 1
 247 1105 l 1
 151 1105 l 1
 151 1201 l 1
273 963 m 1
 369 963 l 1
 369 868 l 1
 273 868 l 1
 273 963 l 1
30 963 m 1
 126 963 l 1
 126 868 l 1
 30 868 l 1
 30 963 l 1
EndSplineSet
Validated: 1
EndChar

StartChar: D1b
Encoding: 65604 -1 158
Width: 495
VWidth: 1524
GlyphClass: 5
Flags: MW
LayerCount: 2
Back
Fore
SplineSet
152 -245 m 1
 248 -245 l 1
 248 -341 l 1
 152 -341 l 1
 152 -245 l 1
EndSplineSet
Validated: 1
EndChar

StartChar: D2b
Encoding: 65605 -1 159
Width: 548
VWidth: 1524
GlyphClass: 5
Flags: MW
LayerCount: 2
Back
Fore
SplineSet
267 -245 m 1
 363 -245 l 1
 363 -341 l 1
 267 -341 l 1
 267 -245 l 1
38 -245 m 1
 133 -245 l 1
 133 -341 l 1
 38 -341 l 1
 38 -245 l 1
EndSplineSet
Validated: 1
EndChar

StartChar: D3b
Encoding: 65606 -1 160
Width: 548
VWidth: 1524
GlyphClass: 5
Flags: MW
LayerCount: 2
Back
Fore
SplineSet
151 -451 m 1
 247 -451 l 1
 247 -547 l 1
 151 -547 l 1
 151 -451 l 1
273 -213 m 1
 369 -213 l 1
 369 -310 l 1
 273 -310 l 1
 273 -213 l 1
30 -213 m 1
 126 -213 l 1
 126 -310 l 1
 30 -310 l 1
 30 -213 l 1
EndSplineSet
Validated: 1
EndChar

StartChar: mA
Encoding: 65607 -1 161
Width: 0
VWidth: 1524
GlyphClass: 5
Flags: MW
LayerCount: 2
Back
Fore
SplineSet
163 830 m 2
 161 830 l 2
 115 830 84 839 67 855 c 0
 54 868 35 894 0 894 c 0
 -13 894 -27 889 -37 883 c 1
 -58 908 l 1
 -37 929 -20 937 -6 937 c 0
 31 937 36 926 59 905 c 2
 90 877 l 1
 106 915 l 1
 145 1004 227 1148 338 1148 c 0
 428 1148 468 1113 468 1042 c 0
 468 987 432 938 353 895 c 0
 274 851 210 830 163 830 c 2
133 916 m 2
 109 869 l 1
 163 873 l 1
 268 882 352 911 412 964 c 0
 437 985 449 1012 449 1040 c 0
 449 1085 410 1106 349 1106 c 0
 268 1106 196 1040 133 916 c 2
EndSplineSet
Validated: 1
EndChar

StartChar: mH
Encoding: 65608 -1 162
Width: 0
VWidth: 1524
GlyphClass: 5
Flags: MW
LayerCount: 2
Back
Fore
SplineSet
356 1095 m 1
 325 1103 296 1107 264 1107 c 0
 193 1107 110 1060 110 982 c 0
 110 927 165 904 254 904 c 0
 269 904 286 906 303 910 c 1
 318 874 l 1
 229 817 133 783 31 771 c 1
 28 812 l 1
 77 817 113 823 144 831 c 2
 219 849 l 1
 152 887 l 1
 109 910 90 941 90 984 c 0
 90 1080 171 1148 275 1148 c 0
 302 1148 333 1143 367 1134 c 1
 356 1095 l 1
EndSplineSet
Validated: 1
EndChar

StartChar: earab.tanvin_fatheh
Encoding: 1611 1611 163
Width: 0
VWidth: 1524
GlyphClass: 4
Flags: MW
AnchorPoint: "Anchor-4" 223 746 mark 0
AnchorPoint: "Anchor-2" 223 746 mark 0
AnchorPoint: "Anchor-0" 223 746 mark 0
LayerCount: 2
Back
Fore
SplineSet
40 805 m 1
 362 934 l 1
 362 929 l 1
 40 799 l 1
 40 805 l 1
40 1010 m 1
 362 1139 l 1
 362 1133 l 1
 40 1003 l 1
 40 1010 l 1
EndSplineSet
Validated: 1
EndChar

StartChar: earab.tanvin_kasreh
Encoding: 1612 1612 164
Width: 0
VWidth: 1524
GlyphClass: 4
Flags: MW
AnchorPoint: "Anchor-4" 176 630 mark 0
AnchorPoint: "Anchor-2" 176 630 mark 0
AnchorPoint: "Anchor-0" 176 630 mark 0
LayerCount: 2
Back
Fore
SplineSet
323 906 m 1
 340 896 355 891 383 885 c 1
 383 846 l 1
 301 873 l 1
 250 784 139 713 -21 654 c 1
 -27 669 -32 687 -36 702 c 1
 -17 706 8 717 36 728 c 1
 37 736 39 745 39 752 c 2
 39 764 l 1
 38 831 4 881 -61 881 c 0
 -74 881 -87 880 -97 877 c 1
 -105 889 -110 907 -123 920 c 1
 -111 923 -98 925 -81 925 c 0
 24 925 57 841 65 734 c 1
 154 775 229 823 274 885 c 1
 232 899 201 902 156 917 c 0
 133 925 114 941 97 964 c 1
 114 1059 157 1120 227 1151 c 0
 248 1161 265 1165 276 1165 c 2
 295 1165 l 1
 341 1132 362 1096 362 1054 c 0
 362 976 341 948 323 906 c 1
290 913 m 1
 310 953 328 991 328 1010 c 0
 328 1066 305 1095 262 1117 c 1
 260 1117 l 2
 194 1117 147 1069 131 988 c 1
 153 966 179 949 213 939 c 0
 249 928 268 923 290 913 c 1
EndSplineSet
Validated: 1
EndChar

StartChar: earab.tanvin_zameh
Encoding: 1613 1613 165
Width: 0
VWidth: 1524
GlyphClass: 4
Flags: MW
AnchorPoint: "Anchor-5" 188 -52 mark 0
AnchorPoint: "Anchor-3" 188 -52 mark 0
AnchorPoint: "Anchor-1" 188 -52 mark 0
LayerCount: 2
Back
Fore
SplineSet
18 -451 m 1
 342 -321 l 1
 342 -327 l 1
 18 -457 l 1
 18 -451 l 1
18 -253 m 1
 342 -123 l 1
 342 -130 l 1
 18 -260 l 1
 18 -253 l 1
EndSplineSet
Validated: 1
EndChar

StartChar: earab.fatheh
Encoding: 1614 1614 166
Width: 0
VWidth: 1524
GlyphClass: 4
Flags: MW
AnchorPoint: "Anchor-4" 199 933 mark 0
AnchorPoint: "Anchor-2" 199 933 mark 0
AnchorPoint: "Anchor-0" 199 933 mark 0
LayerCount: 2
Back
Fore
SplineSet
18 999 m 1
 342 1129 l 1
 342 1122 l 1
 18 992 l 1
 18 999 l 1
EndSplineSet
Validated: 1
EndChar

StartChar: earab.zameh
Encoding: 1615 1615 167
Width: 0
VWidth: 1524
GlyphClass: 4
Flags: MW
AnchorPoint: "Anchor-4" 210 630 mark 0
AnchorPoint: "Anchor-2" 210 630 mark 0
AnchorPoint: "Anchor-0" 210 630 mark 0
LayerCount: 2
Back
Fore
SplineSet
277 911 m 1
 291 943 305 977 305 1004 c 0
 305 1056 283 1088 241 1109 c 1
 239 1109 l 2
 160 1109 129 1061 115 991 c 1
 136 970 162 953 197 941 c 0
 234 928 255 921 277 911 c 1
338 1034 m 0
 338 986 315 941 308 900 c 1
 325 892 343 883 378 872 c 1
 367 836 l 1
 281 872 l 1
 219 778 122 707 -2 658 c 1
 -2 715 l 1
 115 748 196 801 253 879 c 1
 204 895 121 926 90 959 c 1
 97 1087 153 1156 271 1162 c 1
 316 1129 338 1088 338 1034 c 0
EndSplineSet
Validated: 1
EndChar

StartChar: earab.kasreh
Encoding: 1616 1616 168
Width: 0
VWidth: 1524
GlyphClass: 4
Flags: MW
AnchorPoint: "Anchor-5" 199 -216 mark 0
AnchorPoint: "Anchor-3" 199 -216 mark 0
AnchorPoint: "Anchor-1" 199 -216 mark 0
LayerCount: 2
Back
Fore
SplineSet
18 -446 m 1
 342 -317 l 1
 342 -325 l 1
 18 -453 l 1
 18 -446 l 1
EndSplineSet
Validated: 1
EndChar

StartChar: earab.tashdid
Encoding: 1617 1617 169
Width: 0
VWidth: 1524
GlyphClass: 4
Flags: MW
AnchorPoint: "Anchor-4" 199 781 mark 0
AnchorPoint: "Anchor-2" 199 781 mark 0
AnchorPoint: "Anchor-0" 199 781 mark 0
LayerCount: 2
Back
Fore
SplineSet
329 899 m 0
 315 891 302 887 285 887 c 0
 245 887 214 927 201 967 c 2
 190 1001 l 1
 182 966 l 2
 160 869 125 827 82 826 c 1
 75 826 l 2
 25 826 -5 851 -19 908 c 0
 -26 937 -30 957 -30 966 c 2
 -30 984 l 1
 -32 1035 l 1
 -6 1042 l 1
 -4 983 l 2
 -1 912 22 866 71 866 c 0
 138 866 167 932 167 1044 c 2
 167 1093 l 1
 190 1101 l 1
 192 1039 207 990 235 951 c 0
 246 935 261 926 280 926 c 0
 336 926 360 980 360 1067 c 0
 360 1088 357 1119 352 1155 c 1
 382 1162 l 1
 388 1029 l 1
 388 963 368 922 329 899 c 0
EndSplineSet
Validated: 1
EndChar

StartChar: earab.sokon
Encoding: 1618 1618 170
Width: 0
VWidth: 1524
GlyphClass: 4
Flags: MW
AnchorPoint: "Anchor-4" 188 751 mark 0
AnchorPoint: "Anchor-2" 188 751 mark 0
AnchorPoint: "Anchor-0" 188 751 mark 0
LayerCount: 2
Back
Fore
SplineSet
131 1113 m 1
 78 1078 49 1028 49 953 c 0
 49 899 95 876 170 876 c 0
 244 876 292 895 292 943 c 0
 291 1012 227 1105 134 1113 c 1
 131 1113 l 1
316 961 m 0
 316 865 268 820 165 820 c 0
 86 820 17 876 17 952 c 0
 17 1048 57 1118 135 1165 c 1
 159 1160 180 1152 203 1138 c 0
 280 1094 316 1036 316 961 c 0
EndSplineSet
Validated: 1
EndChar

StartChar: uni0653
Encoding: 1619 1619 171
Width: 0
VWidth: 1524
GlyphClass: 4
Flags: MW
AnchorPoint: "Anchor-4" -1 793 mark 0
AnchorPoint: "Anchor-2" -1 793 mark 0
AnchorPoint: "Anchor-0" -1 793 mark 0
LayerCount: 2
Back
Fore
SplineSet
-221 868 m 1
 -233 840 -242 806 -242 780 c 2
 -242 756 l 1
 -263 756 l 1
 -260 818 -243 869 -216 916 c 1
 -174 899 -118 892 -42 892 c 0
 39 892 133 924 237 983 c 1
 253 951 l 1
 135 883 30 850 -67 850 c 0
 -99 850 -166 860 -221 868 c 1
EndSplineSet
Validated: 1
EndChar

StartChar: uni0654
Encoding: 1620 1620 172
Width: 0
VWidth: 1524
GlyphClass: 4
Flags: MW
AnchorPoint: "Anchor-4" 188 734 mark 0
AnchorPoint: "Anchor-2" 188 734 mark 0
AnchorPoint: "Anchor-0" 188 734 mark 0
LayerCount: 2
Back
Fore
SplineSet
216 879 m 1
 300 900 312 904 369 918 c 1
 376 876 l 1
 358 872 342 870 326 867 c 0
 258 855 163 819 41 761 c 1
 28 797 l 1
 74 819 101 831 115 838 c 1
 159 856 l 1
 123 888 l 2
 84 922 66 955 66 990 c 0
 66 1060 152 1146 223 1146 c 2
 225 1146 l 1
 267 1145 306 1124 332 1092 c 1
 314 1070 l 1
 292 1093 266 1106 238 1106 c 0
 151 1106 86 1051 86 988 c 0
 86 966 97 946 116 932 c 0
 134 918 167 901 213 881 c 1
 216 879 l 1
EndSplineSet
Validated: 1
EndChar

StartChar: uni0655
Encoding: 1621 1621 173
Width: 0
VWidth: 1524
GlyphClass: 4
Flags: MW
AnchorPoint: "Anchor-5" 176 -52 mark 0
AnchorPoint: "Anchor-3" 176 -52 mark 0
AnchorPoint: "Anchor-1" 176 -52 mark 0
LayerCount: 2
Back
Fore
SplineSet
338 -412 m 1
 243 -428 147 -458 4 -526 c 1
 -9 -491 l 1
 26 -473 l 2
 44 -464 61 -456 76 -449 c 2
 120 -430 l 1
 83 -399 l 1
 44 -365 27 -332 27 -298 c 0
 27 -263 42 -229 77 -193 c 0
 112 -157 145 -140 175 -140 c 0
 244 -140 260 -159 295 -196 c 1
 274 -218 l 1
 253 -196 231 -182 188 -182 c 0
 127 -182 48 -231 48 -294 c 0
 48 -366 136 -388 180 -410 c 1
 228 -386 278 -381 331 -370 c 1
 338 -412 l 1
EndSplineSet
Validated: 1
EndChar

StartChar: uni0656
Encoding: 1622 1622 174
Width: 0
VWidth: 1524
GlyphClass: 4
Flags: MW
AnchorPoint: "Anchor-5" 188 -133 mark 0
AnchorPoint: "Anchor-3" 188 -133 mark 0
AnchorPoint: "Anchor-1" 188 -133 mark 0
LayerCount: 2
Back
Fore
SplineSet
171 -219 m 1
 187 -205 l 1
 220 -271 235 -331 235 -388 c 0
 235 -392 234 -397 234 -402 c 1
 224 -334 203 -274 171 -219 c 1
EndSplineSet
Validated: 1
EndChar

StartChar: uni0670
Encoding: 1648 1648 175
Width: 0
VWidth: 1524
GlyphClass: 4
Flags: MW
AnchorPoint: "Anchor-4" 176 852 mark 0
AnchorPoint: "Anchor-2" 176 852 mark 0
AnchorPoint: "Anchor-0" 176 852 mark 0
LayerCount: 2
Back
Fore
SplineSet
196 958 m 2
 196 947 l 1
 187 999 172 1046 149 1089 c 2
 131 1122 l 1
 148 1137 l 1
 181 1070 196 1012 196 958 c 2
EndSplineSet
Validated: 1
EndChar

StartChar: uniFDFC
Encoding: 65020 65020 176
Width: 2263
VWidth: 1524
GlyphClass: 2
Flags: MW
LayerCount: 2
Back
Fore
SplineSet
1996 703 m 1
 2048 754 l 1
 2092 682 2142 531 2142 394 c 0
 2142 279 2060 177 1987 110 c 1
 1893 14 1772 -65 1624 -126 c 1
 1600 -39 l 1
 1817 48 1961 152 2035 276 c 0
 2063 320 2077 366 2077 418 c 0
 2077 510 2030 644 1996 703 c 1
1482 318 m 2
 1485 318 l 2
 1592 318 1707 351 1707 453 c 0
 1707 513 1685 605 1643 726 c 1
 1703 753 l 1
 1748 620 1770 524 1770 459 c 0
 1770 307 1644 230 1472 230 c 0
 1279 230 1212 290 1212 478 c 2
 1212 1183 l 1
 1274 1183 l 1
 1274 478 l 2
 1274 353 1352 318 1482 318 c 2
189 97 m 0
 189 -42 279 -110 445 -110 c 0
 779 -110 915 12 915 362 c 2
 915 1183 l 1
 977 1183 l 1
 977 373 l 2
 977 73 877 -105 677 -169 c 0
 611 -190 542 -200 472 -200 c 0
 236 -200 124 -100 124 100 c 0
 124 186 161 298 236 433 c 1
 280 412 l 1
 239 332 214 271 204 222 c 0
 194 173 189 131 189 97 c 0
1336 16 m 1
 1432 16 l 1
 1432 -80 l 1
 1336 -80 l 1
 1336 16 l 1
1085 16 m 1
 1182 16 l 1
 1182 -80 l 1
 1085 -80 l 1
 1085 16 l 1
EndSplineSet
Validated: 1
EndChar

StartChar: mG
Encoding: 65609 -1 177
Width: 786
VWidth: 1524
GlyphClass: 5
Flags: MW
LayerCount: 2
Back
Fore
SplineSet
124 1019 m 1
 322 1111 508 1185 680 1240 c 1
 689 1201 l 1
 473 1131 290 1058 137 982 c 1
 124 1019 l 1
EndSplineSet
Validated: 1
EndChar

StartChar: uniFB92
Encoding: 64402 64402 178
Width: 1725
VWidth: 1524
GlyphClass: 2
Flags: MW
AnchorPoint: "Anchor-1" 234 -161 basechar 0
AnchorPoint: "Anchor-0" 353 902 basechar 0
LayerCount: 2
Back
Fore
SplineSet
647 11 m 2
 641 11 l 2
 393 11 137 81 137 295 c 0
 137 372 156 468 197 580 c 1
 261 567 l 1
 254 546 243 512 227 464 c 0
 208 405 198 354 198 308 c 0
 198 262 212 226 239 200 c 0
 310 131 456 100 674 100 c 0
 892 100 1062 115 1182 144 c 0
 1302 173 1369 224 1369 299 c 1
 1368 371 1328 437 1252 497 c 0
 1210 530 1129 579 1012 643 c 1
 1025 796 l 1
 1163 870 1322 939 1510 1005 c 0
 1546 1018 1579 1028 1605 1035 c 1
 1621 948 l 1
 1490 915 1319 846 1107 741 c 2
 1055 715 l 1
 1105 688 l 1
 1217 625 1292 574 1327 536 c 0
 1390 468 1429 413 1429 299 c 0
 1429 112 1177 11 647 11 c 2
1358 1115 m 0
 1417 1140 1487 1163 1567 1189 c 1
 1578 1149 l 1
 1376 1083 1190 1010 1026 931 c 1
 1013 967 l 1
 1161 1036 1214 1055 1358 1115 c 0
EndSplineSet
Validated: 513
PairPos2: "'kern' Horizontal Kerning in Arabic lookup 0 subtable" gaf_ye.farsi.isol dx=75 dy=0 dh=75 dv=0 dx=0 dy=0 dh=0 dv=0
PairPos2: "'kern' Horizontal Kerning in Arabic lookup 0 subtable" kaf.farsi_ye.farsi.isol dx=75 dy=0 dh=75 dv=0 dx=0 dy=0 dh=0 dv=0
PairPos2: "'kern' Horizontal Kerning in Arabic lookup 0 subtable" uniFB6C dx=100 dy=0 dh=100 dv=0 dx=0 dy=0 dh=0 dv=0
PairPos2: "'kern' Horizontal Kerning in Arabic lookup 0 subtable" uniFB6A dx=100 dy=0 dh=100 dv=0 dx=0 dy=0 dh=0 dv=0
PairPos2: "'kern' Horizontal Kerning in Arabic lookup 0 subtable" lam_ye.farsi.isol dx=100 dy=0 dh=100 dv=0 dx=0 dy=0 dh=0 dv=0
PairPos2: "'kern' Horizontal Kerning in Arabic lookup 0 subtable" mim_ye.farsi.isol dx=100 dy=0 dh=100 dv=0 dx=0 dy=0 dh=0 dv=0
PairPos2: "'kern' Horizontal Kerning in Arabic lookup 0 subtable" zad_ye.farsi.isol dx=100 dy=0 dh=100 dv=0 dx=0 dy=0 dh=0 dv=0
PairPos2: "'kern' Horizontal Kerning in Arabic lookup 0 subtable" shin_ye.farsi.isol dx=100 dy=0 dh=100 dv=0 dx=0 dy=0 dh=0 dv=0
PairPos2: "'kern' Horizontal Kerning in Arabic lookup 0 subtable" sad_ye.farsi.isol dx=100 dy=0 dh=100 dv=0 dx=0 dy=0 dh=0 dv=0
PairPos2: "'kern' Horizontal Kerning in Arabic lookup 0 subtable" sin_ye.farsi.isol dx=100 dy=0 dh=100 dv=0 dx=0 dy=0 dh=0 dv=0
PairPos2: "'kern' Horizontal Kerning in Arabic lookup 0 subtable" uniFEFB_earab.tanvin_fatheh dx=100 dy=0 dh=100 dv=0 dx=0 dy=0 dh=0 dv=0
PairPos2: "'kern' Horizontal Kerning in Arabic lookup 0 subtable" uniFEF7 dx=100 dy=0 dh=100 dv=0 dx=0 dy=0 dh=0 dv=0
PairPos2: "'kern' Horizontal Kerning in Arabic lookup 0 subtable" uniFEF5 dx=100 dy=0 dh=100 dv=0 dx=0 dy=0 dh=0 dv=0
PairPos2: "'kern' Horizontal Kerning in Arabic lookup 0 subtable" uniFEED dx=100 dy=0 dh=100 dv=0 dx=0 dy=0 dh=0 dv=0
PairPos2: "'kern' Horizontal Kerning in Arabic lookup 0 subtable" he8_uni0654.init dx=100 dy=0 dh=100 dv=0 dx=0 dy=0 dh=0 dv=0
PairPos2: "'kern' Horizontal Kerning in Arabic lookup 0 subtable" he8_uni0654.isol dx=100 dy=0 dh=100 dv=0 dx=0 dy=0 dh=0 dv=0
PairPos2: "'kern' Horizontal Kerning in Arabic lookup 0 subtable" he8.init dx=100 dy=0 dh=100 dv=0 dx=0 dy=0 dh=0 dv=0
PairPos2: "'kern' Horizontal Kerning in Arabic lookup 0 subtable" uniFEE9 dx=100 dy=0 dh=100 dv=0 dx=0 dy=0 dh=0 dv=0
PairPos2: "'kern' Horizontal Kerning in Arabic lookup 0 subtable" nun.init dx=100 dy=0 dh=100 dv=0 dx=0 dy=0 dh=0 dv=0
PairPos2: "'kern' Horizontal Kerning in Arabic lookup 0 subtable" mim.init dx=100 dy=0 dh=100 dv=0 dx=0 dy=0 dh=0 dv=0
PairPos2: "'kern' Horizontal Kerning in Arabic lookup 0 subtable" uniFEE1 dx=100 dy=0 dh=100 dv=0 dx=0 dy=0 dh=0 dv=0
PairPos2: "'kern' Horizontal Kerning in Arabic lookup 0 subtable" lam.init dx=100 dy=0 dh=100 dv=0 dx=0 dy=0 dh=0 dv=0
PairPos2: "'kern' Horizontal Kerning in Arabic lookup 0 subtable" uniFEDD dx=100 dy=0 dh=100 dv=0 dx=0 dy=0 dh=0 dv=0
PairPos2: "'kern' Horizontal Kerning in Arabic lookup 0 subtable" uniFEDB dx=75 dy=0 dh=75 dv=0 dx=0 dy=0 dh=0 dv=0
PairPos2: "'kern' Horizontal Kerning in Arabic lookup 0 subtable" uniFED9 dx=100 dy=0 dh=100 dv=0 dx=0 dy=0 dh=0 dv=0
PairPos2: "'kern' Horizontal Kerning in Arabic lookup 0 subtable" qaf.init dx=100 dy=0 dh=100 dv=0 dx=0 dy=0 dh=0 dv=0
PairPos2: "'kern' Horizontal Kerning in Arabic lookup 0 subtable" fe.init dx=100 dy=0 dh=100 dv=0 dx=0 dy=0 dh=0 dv=0
PairPos2: "'kern' Horizontal Kerning in Arabic lookup 0 subtable" uniFED1 dx=100 dy=0 dh=100 dv=0 dx=0 dy=0 dh=0 dv=0
PairPos2: "'kern' Horizontal Kerning in Arabic lookup 0 subtable" qein.init dx=100 dy=0 dh=100 dv=0 dx=0 dy=0 dh=0 dv=0
PairPos2: "'kern' Horizontal Kerning in Arabic lookup 0 subtable" uniFECD dx=100 dy=0 dh=100 dv=0 dx=0 dy=0 dh=0 dv=0
PairPos2: "'kern' Horizontal Kerning in Arabic lookup 0 subtable" ein.init dx=100 dy=0 dh=100 dv=0 dx=0 dy=0 dh=0 dv=0
PairPos2: "'kern' Horizontal Kerning in Arabic lookup 0 subtable" uniFEC9 dx=100 dy=0 dh=100 dv=0 dx=0 dy=0 dh=0 dv=0
PairPos2: "'kern' Horizontal Kerning in Arabic lookup 0 subtable" za.init dx=100 dy=0 dh=100 dv=0 dx=0 dy=0 dh=0 dv=0
PairPos2: "'kern' Horizontal Kerning in Arabic lookup 0 subtable" uniFEC5 dx=100 dy=0 dh=100 dv=0 dx=0 dy=0 dh=0 dv=0
PairPos2: "'kern' Horizontal Kerning in Arabic lookup 0 subtable" ta.init dx=100 dy=0 dh=100 dv=0 dx=0 dy=0 dh=0 dv=0
PairPos2: "'kern' Horizontal Kerning in Arabic lookup 0 subtable" uniFEC1 dx=100 dy=0 dh=100 dv=0 dx=0 dy=0 dh=0 dv=0
PairPos2: "'kern' Horizontal Kerning in Arabic lookup 0 subtable" zad.init dx=100 dy=0 dh=100 dv=0 dx=0 dy=0 dh=0 dv=0
PairPos2: "'kern' Horizontal Kerning in Arabic lookup 0 subtable" uniFEBD dx=100 dy=0 dh=100 dv=0 dx=0 dy=0 dh=0 dv=0
PairPos2: "'kern' Horizontal Kerning in Arabic lookup 0 subtable" sad.init dx=100 dy=0 dh=100 dv=0 dx=0 dy=0 dh=0 dv=0
PairPos2: "'kern' Horizontal Kerning in Arabic lookup 0 subtable" uniFEB9 dx=100 dy=0 dh=100 dv=0 dx=0 dy=0 dh=0 dv=0
PairPos2: "'kern' Horizontal Kerning in Arabic lookup 0 subtable" shin.init dx=100 dy=0 dh=100 dv=0 dx=0 dy=0 dh=0 dv=0
PairPos2: "'kern' Horizontal Kerning in Arabic lookup 0 subtable" uniFEB5 dx=100 dy=0 dh=100 dv=0 dx=0 dy=0 dh=0 dv=0
PairPos2: "'kern' Horizontal Kerning in Arabic lookup 0 subtable" sin.init dx=100 dy=0 dh=100 dv=0 dx=0 dy=0 dh=0 dv=0
PairPos2: "'kern' Horizontal Kerning in Arabic lookup 0 subtable" uniFEB1 dx=100 dy=0 dh=100 dv=0 dx=0 dy=0 dh=0 dv=0
PairPos2: "'kern' Horizontal Kerning in Arabic lookup 0 subtable" uniFEAF dx=100 dy=0 dh=100 dv=0 dx=0 dy=0 dh=0 dv=0
PairPos2: "'kern' Horizontal Kerning in Arabic lookup 0 subtable" uniFEAD dx=100 dy=0 dh=100 dv=0 dx=0 dy=0 dh=0 dv=0
PairPos2: "'kern' Horizontal Kerning in Arabic lookup 0 subtable" uniFEAB dx=100 dy=0 dh=100 dv=0 dx=0 dy=0 dh=0 dv=0
PairPos2: "'kern' Horizontal Kerning in Arabic lookup 0 subtable" uniFEA9 dx=100 dy=0 dh=100 dv=0 dx=0 dy=0 dh=0 dv=0
PairPos2: "'kern' Horizontal Kerning in Arabic lookup 0 subtable" khe.init dx=100 dy=0 dh=100 dv=0 dx=0 dy=0 dh=0 dv=0
PairPos2: "'kern' Horizontal Kerning in Arabic lookup 0 subtable" uniFEA5 dx=100 dy=0 dh=100 dv=0 dx=0 dy=0 dh=0 dv=0
PairPos2: "'kern' Horizontal Kerning in Arabic lookup 0 subtable" him.init dx=100 dy=0 dh=100 dv=0 dx=0 dy=0 dh=0 dv=0
PairPos2: "'kern' Horizontal Kerning in Arabic lookup 0 subtable" uniFEA1 dx=100 dy=0 dh=100 dv=0 dx=0 dy=0 dh=0 dv=0
PairPos2: "'kern' Horizontal Kerning in Arabic lookup 0 subtable" jim.init dx=100 dy=0 dh=100 dv=0 dx=0 dy=0 dh=0 dv=0
PairPos2: "'kern' Horizontal Kerning in Arabic lookup 0 subtable" uniFE9D dx=100 dy=0 dh=100 dv=0 dx=0 dy=0 dh=0 dv=0
PairPos2: "'kern' Horizontal Kerning in Arabic lookup 0 subtable" the.init dx=100 dy=0 dh=100 dv=0 dx=0 dy=0 dh=0 dv=0
PairPos2: "'kern' Horizontal Kerning in Arabic lookup 0 subtable" te.init dx=100 dy=0 dh=100 dv=0 dx=0 dy=0 dh=0 dv=0
PairPos2: "'kern' Horizontal Kerning in Arabic lookup 0 subtable" uniFE95 dx=100 dy=0 dh=100 dv=0 dx=0 dy=0 dh=0 dv=0
PairPos2: "'kern' Horizontal Kerning in Arabic lookup 0 subtable" uniFE93 dx=100 dy=0 dh=100 dv=0 dx=0 dy=0 dh=0 dv=0
PairPos2: "'kern' Horizontal Kerning in Arabic lookup 0 subtable" ye.hamze.init dx=100 dy=0 dh=100 dv=0 dx=0 dy=0 dh=0 dv=0
PairPos2: "'kern' Horizontal Kerning in Arabic lookup 0 subtable" uniFE83 dx=100 dy=0 dh=100 dv=0 dx=0 dy=0 dh=0 dv=0
PairPos2: "'kern' Horizontal Kerning in Arabic lookup 0 subtable" uniFE81 dx=100 dy=0 dh=100 dv=0 dx=0 dy=0 dh=0 dv=0
PairPos2: "'kern' Horizontal Kerning in Arabic lookup 0 subtable" uniFE80 dx=100 dy=0 dh=100 dv=0 dx=0 dy=0 dh=0 dv=0
PairPos2: "'kern' Horizontal Kerning in Arabic lookup 0 subtable" uniFD3D dx=100 dy=0 dh=100 dv=0 dx=0 dy=0 dh=0 dv=0
PairPos2: "'kern' Horizontal Kerning in Arabic lookup 0 subtable" uniFBE8 dx=100 dy=0 dh=100 dv=0 dx=0 dy=0 dh=0 dv=0
PairPos2: "'kern' Horizontal Kerning in Arabic lookup 0 subtable" heye dx=100 dy=0 dh=100 dv=0 dx=0 dy=0 dh=0 dv=0
PairPos2: "'kern' Horizontal Kerning in Arabic lookup 0 subtable" kaf.init dx=75 dy=0 dh=75 dv=0 dx=0 dy=0 dh=0 dv=0
PairPos2: "'kern' Horizontal Kerning in Arabic lookup 0 subtable" uniFB8E dx=75 dy=0 dh=75 dv=0 dx=0 dy=0 dh=0 dv=0
PairPos2: "'kern' Horizontal Kerning in Arabic lookup 0 subtable" uniFB8A dx=100 dy=0 dh=100 dv=0 dx=0 dy=0 dh=0 dv=0
PairPos2: "'kern' Horizontal Kerning in Arabic lookup 0 subtable" che.init dx=100 dy=0 dh=100 dv=0 dx=0 dy=0 dh=0 dv=0
PairPos2: "'kern' Horizontal Kerning in Arabic lookup 0 subtable" uniFB7A dx=100 dy=0 dh=100 dv=0 dx=0 dy=0 dh=0 dv=0
PairPos2: "'kern' Horizontal Kerning in Arabic lookup 0 subtable" uniFB56 dx=100 dy=0 dh=100 dv=0 dx=0 dy=0 dh=0 dv=0
PairPos2: "'kern' Horizontal Kerning in Arabic lookup 0 subtable" uniFB50 dx=100 dy=0 dh=100 dv=0 dx=0 dy=0 dh=0 dv=0
PairPos2: "'kern' Horizontal Kerning in Arabic lookup 0 subtable" gaf.init dx=75 dy=0 dh=75 dv=0 dx=0 dy=0 dh=0 dv=0
PairPos2: "'kern' Horizontal Kerning in Arabic lookup 0 subtable" uniFB92 dx=75 dy=0 dh=75 dv=0 dx=0 dy=0 dh=0 dv=0
PairPos2: "'kern' Horizontal Kerning in Arabic lookup 0 subtable" uniFEFB dx=100 dy=0 dh=100 dv=0 dx=0 dy=0 dh=0 dv=0
PairPos2: "'kern' Horizontal Kerning in Arabic lookup 0 subtable" uniFE8D dx=100 dy=0 dh=100 dv=0 dx=0 dy=0 dh=0 dv=0
EndChar

StartChar: gaf.fina
Encoding: 64403 64403 179
Width: 1825
VWidth: 1524
GlyphClass: 2
Flags: MW
AnchorPoint: "Anchor-1" 234 -161 basechar 0
AnchorPoint: "Anchor-0" 353 902 basechar 0
LayerCount: 2
Back
Fore
SplineSet
1015 969 m 1
 1217 1063 1400 1136 1568 1191 c 1
 1580 1151 l 1
 1360 1079 1177 1006 1028 932 c 1
 1015 969 l 1
671 11 m 2
 628 11 l 2
 396 11 137 83 137 282 c 0
 137 368 157 468 197 580 c 1
 260 567 l 1
 251 541 241 506 225 460 c 0
 207 406 198 348 198 288 c 0
 198 223 244 177 328 146 c 0
 412 115 518 100 649 100 c 0
 886 100 1064 115 1184 144 c 0
 1304 173 1370 225 1370 300 c 0
 1370 372 1330 437 1254 497 c 0
 1213 529 1132 578 1013 643 c 1
 1026 796 l 1
 1163 869 1322 939 1512 1005 c 0
 1548 1018 1581 1028 1607 1035 c 1
 1623 948 l 1
 1497 915 1326 848 1108 741 c 1
 1058 715 l 1
 1106 688 l 1
 1228 617 1316 561 1369 520 c 0
 1483 431 1560 351 1598 278 c 1
 1642 189 1709 141 1798 132 c 1
 1798 42 l 1
 1712 50 1644 90 1592 164 c 1
 1556 217 1530 275 1483 326 c 2
 1432 380 l 1
 1431 305 l 2
 1429 188 1345 108 1170 61 c 0
 1063 32 968 16 884 14 c 0
 799 12 728 11 671 11 c 2
EndSplineSet
Validated: 513
PairPos2: "'kern' Horizontal Kerning in Arabic lookup 0 subtable" gaf_ye.farsi.isol dx=75 dy=0 dh=75 dv=0 dx=0 dy=0 dh=0 dv=0
PairPos2: "'kern' Horizontal Kerning in Arabic lookup 0 subtable" kaf.farsi_ye.farsi.isol dx=75 dy=0 dh=75 dv=0 dx=0 dy=0 dh=0 dv=0
PairPos2: "'kern' Horizontal Kerning in Arabic lookup 0 subtable" uniFB6C dx=100 dy=0 dh=100 dv=0 dx=0 dy=0 dh=0 dv=0
PairPos2: "'kern' Horizontal Kerning in Arabic lookup 0 subtable" uniFB6A dx=100 dy=0 dh=100 dv=0 dx=0 dy=0 dh=0 dv=0
PairPos2: "'kern' Horizontal Kerning in Arabic lookup 0 subtable" lam_ye.farsi.isol dx=100 dy=0 dh=100 dv=0 dx=0 dy=0 dh=0 dv=0
PairPos2: "'kern' Horizontal Kerning in Arabic lookup 0 subtable" mim_ye.farsi.isol dx=100 dy=0 dh=100 dv=0 dx=0 dy=0 dh=0 dv=0
PairPos2: "'kern' Horizontal Kerning in Arabic lookup 0 subtable" zad_ye.farsi.isol dx=100 dy=0 dh=100 dv=0 dx=0 dy=0 dh=0 dv=0
PairPos2: "'kern' Horizontal Kerning in Arabic lookup 0 subtable" shin_ye.farsi.isol dx=100 dy=0 dh=100 dv=0 dx=0 dy=0 dh=0 dv=0
PairPos2: "'kern' Horizontal Kerning in Arabic lookup 0 subtable" sad_ye.farsi.isol dx=100 dy=0 dh=100 dv=0 dx=0 dy=0 dh=0 dv=0
PairPos2: "'kern' Horizontal Kerning in Arabic lookup 0 subtable" sin_ye.farsi.isol dx=100 dy=0 dh=100 dv=0 dx=0 dy=0 dh=0 dv=0
PairPos2: "'kern' Horizontal Kerning in Arabic lookup 0 subtable" uniFEFB_earab.tanvin_fatheh dx=100 dy=0 dh=100 dv=0 dx=0 dy=0 dh=0 dv=0
PairPos2: "'kern' Horizontal Kerning in Arabic lookup 0 subtable" uniFEF7 dx=100 dy=0 dh=100 dv=0 dx=0 dy=0 dh=0 dv=0
PairPos2: "'kern' Horizontal Kerning in Arabic lookup 0 subtable" uniFEF5 dx=100 dy=0 dh=100 dv=0 dx=0 dy=0 dh=0 dv=0
PairPos2: "'kern' Horizontal Kerning in Arabic lookup 0 subtable" uniFEED dx=100 dy=0 dh=100 dv=0 dx=0 dy=0 dh=0 dv=0
PairPos2: "'kern' Horizontal Kerning in Arabic lookup 0 subtable" he8_uni0654.init dx=100 dy=0 dh=100 dv=0 dx=0 dy=0 dh=0 dv=0
PairPos2: "'kern' Horizontal Kerning in Arabic lookup 0 subtable" he8_uni0654.isol dx=100 dy=0 dh=100 dv=0 dx=0 dy=0 dh=0 dv=0
PairPos2: "'kern' Horizontal Kerning in Arabic lookup 0 subtable" he8.init dx=100 dy=0 dh=100 dv=0 dx=0 dy=0 dh=0 dv=0
PairPos2: "'kern' Horizontal Kerning in Arabic lookup 0 subtable" uniFEE9 dx=100 dy=0 dh=100 dv=0 dx=0 dy=0 dh=0 dv=0
PairPos2: "'kern' Horizontal Kerning in Arabic lookup 0 subtable" nun.init dx=100 dy=0 dh=100 dv=0 dx=0 dy=0 dh=0 dv=0
PairPos2: "'kern' Horizontal Kerning in Arabic lookup 0 subtable" mim.init dx=100 dy=0 dh=100 dv=0 dx=0 dy=0 dh=0 dv=0
PairPos2: "'kern' Horizontal Kerning in Arabic lookup 0 subtable" uniFEE1 dx=100 dy=0 dh=100 dv=0 dx=0 dy=0 dh=0 dv=0
PairPos2: "'kern' Horizontal Kerning in Arabic lookup 0 subtable" lam.init dx=100 dy=0 dh=100 dv=0 dx=0 dy=0 dh=0 dv=0
PairPos2: "'kern' Horizontal Kerning in Arabic lookup 0 subtable" uniFEDD dx=100 dy=0 dh=100 dv=0 dx=0 dy=0 dh=0 dv=0
PairPos2: "'kern' Horizontal Kerning in Arabic lookup 0 subtable" uniFEDB dx=75 dy=0 dh=75 dv=0 dx=0 dy=0 dh=0 dv=0
PairPos2: "'kern' Horizontal Kerning in Arabic lookup 0 subtable" uniFED9 dx=100 dy=0 dh=100 dv=0 dx=0 dy=0 dh=0 dv=0
PairPos2: "'kern' Horizontal Kerning in Arabic lookup 0 subtable" qaf.init dx=100 dy=0 dh=100 dv=0 dx=0 dy=0 dh=0 dv=0
PairPos2: "'kern' Horizontal Kerning in Arabic lookup 0 subtable" fe.init dx=100 dy=0 dh=100 dv=0 dx=0 dy=0 dh=0 dv=0
PairPos2: "'kern' Horizontal Kerning in Arabic lookup 0 subtable" uniFED1 dx=100 dy=0 dh=100 dv=0 dx=0 dy=0 dh=0 dv=0
PairPos2: "'kern' Horizontal Kerning in Arabic lookup 0 subtable" qein.init dx=100 dy=0 dh=100 dv=0 dx=0 dy=0 dh=0 dv=0
PairPos2: "'kern' Horizontal Kerning in Arabic lookup 0 subtable" uniFECD dx=100 dy=0 dh=100 dv=0 dx=0 dy=0 dh=0 dv=0
PairPos2: "'kern' Horizontal Kerning in Arabic lookup 0 subtable" ein.init dx=100 dy=0 dh=100 dv=0 dx=0 dy=0 dh=0 dv=0
PairPos2: "'kern' Horizontal Kerning in Arabic lookup 0 subtable" uniFEC9 dx=100 dy=0 dh=100 dv=0 dx=0 dy=0 dh=0 dv=0
PairPos2: "'kern' Horizontal Kerning in Arabic lookup 0 subtable" za.init dx=100 dy=0 dh=100 dv=0 dx=0 dy=0 dh=0 dv=0
PairPos2: "'kern' Horizontal Kerning in Arabic lookup 0 subtable" uniFEC5 dx=100 dy=0 dh=100 dv=0 dx=0 dy=0 dh=0 dv=0
PairPos2: "'kern' Horizontal Kerning in Arabic lookup 0 subtable" ta.init dx=100 dy=0 dh=100 dv=0 dx=0 dy=0 dh=0 dv=0
PairPos2: "'kern' Horizontal Kerning in Arabic lookup 0 subtable" uniFEC1 dx=100 dy=0 dh=100 dv=0 dx=0 dy=0 dh=0 dv=0
PairPos2: "'kern' Horizontal Kerning in Arabic lookup 0 subtable" zad.init dx=100 dy=0 dh=100 dv=0 dx=0 dy=0 dh=0 dv=0
PairPos2: "'kern' Horizontal Kerning in Arabic lookup 0 subtable" uniFEBD dx=100 dy=0 dh=100 dv=0 dx=0 dy=0 dh=0 dv=0
PairPos2: "'kern' Horizontal Kerning in Arabic lookup 0 subtable" sad.init dx=100 dy=0 dh=100 dv=0 dx=0 dy=0 dh=0 dv=0
PairPos2: "'kern' Horizontal Kerning in Arabic lookup 0 subtable" uniFEB9 dx=100 dy=0 dh=100 dv=0 dx=0 dy=0 dh=0 dv=0
PairPos2: "'kern' Horizontal Kerning in Arabic lookup 0 subtable" shin.init dx=100 dy=0 dh=100 dv=0 dx=0 dy=0 dh=0 dv=0
PairPos2: "'kern' Horizontal Kerning in Arabic lookup 0 subtable" uniFEB5 dx=100 dy=0 dh=100 dv=0 dx=0 dy=0 dh=0 dv=0
PairPos2: "'kern' Horizontal Kerning in Arabic lookup 0 subtable" sin.init dx=100 dy=0 dh=100 dv=0 dx=0 dy=0 dh=0 dv=0
PairPos2: "'kern' Horizontal Kerning in Arabic lookup 0 subtable" uniFEB1 dx=100 dy=0 dh=100 dv=0 dx=0 dy=0 dh=0 dv=0
PairPos2: "'kern' Horizontal Kerning in Arabic lookup 0 subtable" uniFEAF dx=100 dy=0 dh=100 dv=0 dx=0 dy=0 dh=0 dv=0
PairPos2: "'kern' Horizontal Kerning in Arabic lookup 0 subtable" uniFEAD dx=100 dy=0 dh=100 dv=0 dx=0 dy=0 dh=0 dv=0
PairPos2: "'kern' Horizontal Kerning in Arabic lookup 0 subtable" uniFEAB dx=100 dy=0 dh=100 dv=0 dx=0 dy=0 dh=0 dv=0
PairPos2: "'kern' Horizontal Kerning in Arabic lookup 0 subtable" uniFEA9 dx=100 dy=0 dh=100 dv=0 dx=0 dy=0 dh=0 dv=0
PairPos2: "'kern' Horizontal Kerning in Arabic lookup 0 subtable" khe.init dx=100 dy=0 dh=100 dv=0 dx=0 dy=0 dh=0 dv=0
PairPos2: "'kern' Horizontal Kerning in Arabic lookup 0 subtable" uniFEA5 dx=100 dy=0 dh=100 dv=0 dx=0 dy=0 dh=0 dv=0
PairPos2: "'kern' Horizontal Kerning in Arabic lookup 0 subtable" him.init dx=100 dy=0 dh=100 dv=0 dx=0 dy=0 dh=0 dv=0
PairPos2: "'kern' Horizontal Kerning in Arabic lookup 0 subtable" uniFEA1 dx=100 dy=0 dh=100 dv=0 dx=0 dy=0 dh=0 dv=0
PairPos2: "'kern' Horizontal Kerning in Arabic lookup 0 subtable" jim.init dx=100 dy=0 dh=100 dv=0 dx=0 dy=0 dh=0 dv=0
PairPos2: "'kern' Horizontal Kerning in Arabic lookup 0 subtable" uniFE9D dx=100 dy=0 dh=100 dv=0 dx=0 dy=0 dh=0 dv=0
PairPos2: "'kern' Horizontal Kerning in Arabic lookup 0 subtable" the.init dx=100 dy=0 dh=100 dv=0 dx=0 dy=0 dh=0 dv=0
PairPos2: "'kern' Horizontal Kerning in Arabic lookup 0 subtable" te.init dx=100 dy=0 dh=100 dv=0 dx=0 dy=0 dh=0 dv=0
PairPos2: "'kern' Horizontal Kerning in Arabic lookup 0 subtable" uniFE95 dx=100 dy=0 dh=100 dv=0 dx=0 dy=0 dh=0 dv=0
PairPos2: "'kern' Horizontal Kerning in Arabic lookup 0 subtable" uniFE93 dx=100 dy=0 dh=100 dv=0 dx=0 dy=0 dh=0 dv=0
PairPos2: "'kern' Horizontal Kerning in Arabic lookup 0 subtable" ye.hamze.init dx=100 dy=0 dh=100 dv=0 dx=0 dy=0 dh=0 dv=0
PairPos2: "'kern' Horizontal Kerning in Arabic lookup 0 subtable" uniFE83 dx=100 dy=0 dh=100 dv=0 dx=0 dy=0 dh=0 dv=0
PairPos2: "'kern' Horizontal Kerning in Arabic lookup 0 subtable" uniFE81 dx=100 dy=0 dh=100 dv=0 dx=0 dy=0 dh=0 dv=0
PairPos2: "'kern' Horizontal Kerning in Arabic lookup 0 subtable" uniFE80 dx=100 dy=0 dh=100 dv=0 dx=0 dy=0 dh=0 dv=0
PairPos2: "'kern' Horizontal Kerning in Arabic lookup 0 subtable" uniFD3D dx=100 dy=0 dh=100 dv=0 dx=0 dy=0 dh=0 dv=0
PairPos2: "'kern' Horizontal Kerning in Arabic lookup 0 subtable" uniFBE8 dx=100 dy=0 dh=100 dv=0 dx=0 dy=0 dh=0 dv=0
PairPos2: "'kern' Horizontal Kerning in Arabic lookup 0 subtable" heye dx=100 dy=0 dh=100 dv=0 dx=0 dy=0 dh=0 dv=0
PairPos2: "'kern' Horizontal Kerning in Arabic lookup 0 subtable" kaf.init dx=75 dy=0 dh=75 dv=0 dx=0 dy=0 dh=0 dv=0
PairPos2: "'kern' Horizontal Kerning in Arabic lookup 0 subtable" uniFB8E dx=75 dy=0 dh=75 dv=0 dx=0 dy=0 dh=0 dv=0
PairPos2: "'kern' Horizontal Kerning in Arabic lookup 0 subtable" uniFB8A dx=100 dy=0 dh=100 dv=0 dx=0 dy=0 dh=0 dv=0
PairPos2: "'kern' Horizontal Kerning in Arabic lookup 0 subtable" che.init dx=100 dy=0 dh=100 dv=0 dx=0 dy=0 dh=0 dv=0
PairPos2: "'kern' Horizontal Kerning in Arabic lookup 0 subtable" uniFB7A dx=100 dy=0 dh=100 dv=0 dx=0 dy=0 dh=0 dv=0
PairPos2: "'kern' Horizontal Kerning in Arabic lookup 0 subtable" uniFB56 dx=100 dy=0 dh=100 dv=0 dx=0 dy=0 dh=0 dv=0
PairPos2: "'kern' Horizontal Kerning in Arabic lookup 0 subtable" uniFB50 dx=100 dy=0 dh=100 dv=0 dx=0 dy=0 dh=0 dv=0
PairPos2: "'kern' Horizontal Kerning in Arabic lookup 0 subtable" gaf.init dx=75 dy=0 dh=75 dv=0 dx=0 dy=0 dh=0 dv=0
PairPos2: "'kern' Horizontal Kerning in Arabic lookup 0 subtable" uniFB92 dx=75 dy=0 dh=75 dv=0 dx=0 dy=0 dh=0 dv=0
PairPos2: "'kern' Horizontal Kerning in Arabic lookup 0 subtable" uniFEFB dx=100 dy=0 dh=100 dv=0 dx=0 dy=0 dh=0 dv=0
PairPos2: "'kern' Horizontal Kerning in Arabic lookup 0 subtable" uniFE8D dx=100 dy=0 dh=100 dv=0 dx=0 dy=0 dh=0 dv=0
EndChar

StartChar: gaf.init
Encoding: 64404 64404 180
Width: 796
VWidth: 1524
GlyphClass: 2
Flags: MW
AnchorPoint: "Anchor-1" 234 -161 basechar 0
AnchorPoint: "Anchor-0" 210 1134 basechar 0
LayerCount: 2
Back
Fore
SplineSet
281 73 m 0
 210 51 135 40 55 40 c 2
 0 40 l 2
 -7 40 -18 41 -25 43 c 1
 -25 130 l 1
 55 130 l 2
 213 130 325 157 390 215 c 0
 417 238 430 270 430 306 c 0
 430 401 349 491 197 575 c 0
 160 596 119 619 75 643 c 1
 88 796 l 1
 255 886 459 972 667 1035 c 1
 684 948 l 1
 605 926 513 893 406 847 c 0
 295 799 217 764 169 741 c 2
 117 715 l 1
 167 688 l 1
 276 625 350 575 387 536 c 0
 457 463 490 393 490 327 c 0
 490 176 407 111 281 73 c 0
74 969 m 1
 272 1061 458 1135 630 1190 c 1
 639 1151 l 1
 423 1081 240 1008 87 932 c 1
 74 969 l 1
EndSplineSet
Validated: 1
EndChar

StartChar: gaf.medi
Encoding: 64405 64405 181
Width: 898
VWidth: 1524
GlyphClass: 2
Flags: HMW
AnchorPoint: "Anchor-1" 234 -161 basechar 0
AnchorPoint: "Anchor-0" 210 1134 basechar 0
LayerCount: 2
Back
Fore
SplineSet
500 297 m 6
 500 97.0934055528 266.697861797 20 55 20 c 6
 0 20 l 6
 -11 20 -23 22 -35 25 c 5
 -35 130 l 5
 55 130 l 6
 212 130 321 158 383 213 c 4
 408 234 420 262 420 296 c 4
 420 385 344 472 192 556 c 4
 153 578 110 602 64 627 c 5
 78 792 l 5
 249.645162922 884.876492266 459.582674971 973.374802491 675 1038 c 5
 696 931 l 5
 617 910 521 876 410 828 c 132
 299 780 220 745 173 722 c 5
 140 705 l 5
 172 687 l 5
 295 616 383 559 436 518 c 4
 551 429 628 347 666 273 c 4
 711 184 782 137 880 131 c 5
 880 20 l 5
 756 26 663 92 601 217 c 4
 589 241 567 272 535 310 c 6
 500 352 l 5
 500 297 l 6
687 1243 m 5
 701 1184 l 5
 479 1112 289 1037 132 958 c 5
 111 1014 l 5
 316 1109 508 1186 687 1243 c 5
EndSplineSet
Validated: 524289
EndChar

StartChar: khe.medi
Encoding: 65192 65192 280
Width: 1183
VWidth: 1524
GlyphClass: 2
Flags: HMW
AnchorPoint: "Anchor-1" 344 -161 basechar 0
AnchorPoint: "Anchor-0" 318 1180 basechar 0
LayerCount: 2
Back
Fore
SplineSet
19 189 m 1
 19 209 l 1
 39 209 l 1
 39 189 l 1
 19 189 l 1
EndSplineSet
Refer: 100 -1 N 1 0 0 1 0 0 3
Refer: 155 -1 N 1 0 0 1 344 71 2
Validated: 1
EndChar

StartChar: uni2026.fa
Encoding: 65663 -1 364
Width: 1599
VWidth: 1524
GlyphClass: 2
Flags: MW
LayerCount: 2
Back
Fore
SplineSet
256 16 m 0
 226 16 194 55 194 92 c 0
 194 134 227 166 268 166 c 0
 310 166 342 134 342 92 c 0
 342 57 313 24 291 19 c 0
 282 17 272 16 256 16 c 0
801 16 m 0
 759 16 727 50 727 92 c 0
 727 135 757 166 800 166 c 0
 842 166 874 134 874 92 c 0
 874 50 842 16 801 16 c 0
1334 16 m 0
 1293 16 1260 50 1260 92 c 0
 1260 134 1292 166 1334 166 c 0
 1375 166 1408 134 1408 93 c 0
 1408 53 1373 16 1334 16 c 0
EndSplineSet
Validated: 1
EndChar

StartChar: period.fa
Encoding: 65664 -1 365
Width: 507
VWidth: 1524
GlyphClass: 2
Flags: MW
LayerCount: 2
Back
Fore
SplineSet
254 16 m 0
 212 16 180 50 180 92 c 0
 180 133 212 166 251 166 c 2
 254 166 l 2
 296 166 328 134 328 92 c 0
 328 50 296 16 254 16 c 0
EndSplineSet
Validated: 1
EndChar

StartChar: virgul.fa
Encoding: 65665 -1 366
Width: 537
VWidth: 1524
GlyphClass: 2
Flags: MW
LayerCount: 2
Back
Fore
SplineSet
346 93 m 0
 346 50 313 16 268 16 c 0
 208 16 164 77 164 151 c 0
 164 242 216 324 324 399 c 1
 326 398 l 1
 235 338 187 274 184 204 c 0
 184 190 187 180 190 170 c 2
 206 129 l 1
 238 158 l 2
 247 166 260 170 278 170 c 0
 313 170 346 132 346 93 c 0
EndSplineSet
Validated: 1
EndChar

StartChar: noqte_virgul.fa
Encoding: 65666 -1 367
Width: 537
VWidth: 1524
GlyphClass: 2
Flags: MW
LayerCount: 2
Back
Fore
SplineSet
347 490 m 0
 347 447 312 414 268 414 c 0
 208 414 166 472 166 548 c 0
 166 637 218 719 326 796 c 1
 327 795 329 794 329 794 c 1
 236 733 187 670 186 599 c 1
 188 577 l 1
 188 509 l 1
 238 555 l 2
 246 562 258 566 276 566 c 0
 312 566 347 528 347 490 c 0
270 16 m 1
 228 18 196 51 196 93 c 0
 196 135 226 166 270 166 c 0
 315 166 344 137 344 93 c 0
 344 49 310 21 270 16 c 1
EndSplineSet
Validated: 1
EndChar

StartChar: colon.fa
Encoding: 65667 -1 368
Width: 537
VWidth: 1524
GlyphClass: 2
Flags: MW
LayerCount: 2
Back
Fore
SplineSet
272 450 m 2
 232 450 200 483 200 524 c 0
 200 557 230 597 252 597 c 2
 273 597 l 2
 314 597 347 564 347 524 c 0
 347 483 314 450 273 450 c 2
 272 450 l 2
270 17 m 2
 230 17 200 50 200 92 c 0
 200 135 230 166 272 166 c 0
 314 166 346 134 346 92 c 0
 346 49 314 19 273 17 c 1
 270 17 l 2
EndSplineSet
Validated: 1
EndChar

StartChar: soal.fa
Encoding: 65670 -1 371
Width: 848
VWidth: 1524
GlyphClass: 2
Flags: MW
LayerCount: 2
Back
Fore
SplineSet
430 92 m 0
 430 135 460 166 502 166 c 0
 542 166 578 134 578 98 c 0
 578 40 555 24 495 17 c 1
 459 20 430 52 430 92 c 0
625 1108 m 1
 572 1123 522 1130 472 1130 c 0
 381 1130 255 1073 255 978 c 0
 255 937 270 900 299 870 c 0
 355 812 437 754 499 703 c 0
 554 658 581 599 581 525 c 0
 581 467 581 460 547 413 c 1
 491 426 l 1
 513 465 524 500 524 534 c 0
 524 609 412 676 345 725 c 0
 246 799 197 884 197 981 c 0
 197 1043 225 1097 281 1146 c 0
 338 1195 395 1220 455 1220 c 0
 514 1220 579 1210 648 1191 c 1
 625 1108 l 1
EndSplineSet
Validated: 1
EndChar

StartChar: exclam.fa
Encoding: 65671 -1 372
Width: 640
VWidth: 1524
GlyphClass: 2
Flags: MW
LayerCount: 2
Back
Fore
SplineSet
288 1174 m 1
 370 1174 l 1
 370 443 l 1
 288 443 l 1
 288 1174 l 1
272 206 m 1
 370 206 l 1
 370 66 l 1
 272 66 l 1
 272 206 l 1
EndSplineSet
Validated: 1
EndChar

StartChar: uni066D
Encoding: 1645 1645 378
Width: 1000
VWidth: 1524
GlyphClass: 2
Flags: MW
LayerCount: 2
Back
Fore
SplineSet
340 210 m 2
 328 192 318 186 309 186 c 0
 291 186 268 215 268 236 c 0
 268 247 272 251 276 255 c 1
 436 490 l 1
 176 576 l 1
 155 584 148 596 148 614 c 0
 148 641 159 652 187 652 c 0
 191 652 195 651 196 651 c 2
 197 650 l 1
 460 567 l 1
 460 840 l 2
 460 870 479 900 500 900 c 0
 523 900 540 873 540 840 c 2
 540 567 l 1
 803 650 l 1
 804 651 l 1
 808 652 812 652 818 652 c 0
 836 652 852 632 852 605 c 0
 852 591 845 582 825 577 c 1
 564 490 l 1
 725 257 l 1
 730 252 734 245 734 237 c 0
 734 219 707 187 691 187 c 0
 682 187 671 192 660 210 c 2
 501 447 l 1
 340 210 l 2
EndSplineSet
Validated: 1
EndChar

StartChar: D3bs
Encoding: 65682 -1 379
Width: 1170
VWidth: 1524
GlyphClass: 5
Flags: MW
LayerCount: 2
Back
Fore
SplineSet
562 -37 m 1
 642 -37 l 1
 642 -118 l 1
 562 -118 l 1
 562 -37 l 1
671 196 m 1
 751 196 l 1
 751 115 l 1
 671 115 l 1
 671 196 l 1
452 196 m 1
 534 196 l 1
 534 115 l 1
 452 115 l 1
 452 196 l 1
EndSplineSet
Validated: 1
EndChar
